<?xml version="1.0" encoding="UTF-8"?><svg xmlns="http://www.w3.org/2000/svg" xmlns:xlink="http://www.w3.org/1999/xlink" width="375" zoomAndPan="magnify" viewBox="0 0 375 374.999991" height="374.999991" preserveAspectRatio="xMidYMid meet" version="1.0"><path fill="rgb(45.878601%, 45.878601%, 96.078491%)" d="M 252.449219 218.550781 C 252.449219 217.949219 252.300781 217.351562 251.851562 216.898438 C 250.949219 210.601562 248.398438 204.449219 244.949219 199.199219 C 236.101562 186.300781 221.550781 178.5 205.800781 178.5 C 205.800781 178.5 205.648438 178.5 205.648438 178.5 C 178.648438 178.5 158.25 198 150.898438 206.398438 C 148.199219 209.398438 146.851562 213.148438 146.851562 217.050781 L 146.851562 230.550781 L 138.898438 230.550781 C 133.351562 230.550781 128.699219 225.898438 128.699219 220.351562 L 128.699219 158.398438 C 128.699219 152.851562 133.351562 148.199219 138.898438 148.199219 L 228.75 148.199219 L 228.75 158.851562 C 228.75 166.949219 235.351562 173.550781 243.449219 173.550781 L 247.5 173.550781 C 249.148438 173.550781 250.5 172.199219 250.5 170.550781 L 250.5 120 C 250.5 118.351562 249.148438 117 247.5 117 L 243.449219 117 C 235.351562 117 228.75 123.601562 228.75 131.699219 L 228.75 142.351562 L 138.75 142.351562 C 129.75 142.351562 122.550781 149.699219 122.398438 158.699219 L 122.398438 220.648438 C 122.398438 229.648438 129.75 236.851562 138.75 237 L 146.699219 237 L 146.699219 243.148438 C 146.699219 249.449219 151.800781 254.550781 158.101562 254.550781 L 187.648438 254.550781 C 191.550781 257.101562 195.898438 258.300781 200.25 258.300781 C 204.601562 258.300781 209.101562 257.101562 212.851562 254.550781 L 227.550781 254.550781 C 237.148438 254.550781 245.851562 248.851562 249.148438 240.300781 C 251.699219 233.851562 252.75 226.800781 252.148438 219.898438 C 252.449219 219.300781 252.449219 219 252.449219 218.550781 Z M 200.398438 218.101562 C 209.699219 218.101562 217.351562 225.75 217.351562 235.050781 C 217.351562 244.351562 209.699219 252 200.398438 252 C 191.101562 252 183.449219 244.351562 183.449219 235.050781 C 183.449219 225.601562 190.949219 218.101562 200.398438 218.101562 Z M 223.351562 235.050781 C 223.351562 222.300781 213 211.949219 200.25 211.949219 C 194.101562 211.949219 188.25 214.351562 183.898438 218.699219 C 179.550781 223.050781 177.148438 228.898438 177.148438 235.050781 C 177.148438 239.851562 178.648438 244.351562 181.351562 248.25 L 158.101562 248.25 C 155.101562 248.25 152.699219 245.851562 152.699219 242.851562 L 152.699219 224.699219 L 166.800781 224.699219 C 168 224.699219 169.199219 223.949219 169.648438 222.75 C 169.800781 222.601562 178.199219 201.449219 203.398438 201.449219 C 228.148438 201.449219 231 218.25 231.148438 219 C 231.300781 220.5 232.648438 221.550781 234.148438 221.550781 L 246.449219 221.550781 C 246.75 227.101562 245.851562 232.648438 243.75 237.75 C 241.351562 244.050781 234.898438 248.101562 227.699219 248.101562 L 219.148438 248.101562 C 221.851562 244.351562 223.351562 239.699219 223.351562 235.050781 Z M 236.398438 215.550781 C 230.398438 196.800781 209.699219 195.300781 203.398438 195.300781 C 178.949219 195.300781 168 212.550781 165 218.550781 L 152.851562 218.550781 L 152.851562 217.050781 C 152.851562 214.648438 153.75 212.25 155.398438 210.449219 C 162.300781 202.648438 181.050781 184.648438 205.648438 184.648438 C 219.449219 184.648438 232.199219 191.398438 240 202.648438 C 242.699219 206.550781 244.5 210.898438 245.550781 215.550781 Z M 234.601562 131.550781 C 234.601562 126.898438 238.5 123 243.148438 123 L 244.199219 123 L 244.199219 167.398438 L 243.148438 167.398438 C 238.351562 167.398438 234.601562 163.5 234.601562 158.851562 Z M 234.601562 131.550781 " fill-opacity="1" fill-rule="nonzero"/></svg>