<?xml version="1.0" encoding="UTF-8"?><svg xmlns="http://www.w3.org/2000/svg" xmlns:xlink="http://www.w3.org/1999/xlink" width="375" zoomAndPan="magnify" viewBox="0 0 375 374.999991" height="374.999991" preserveAspectRatio="xMidYMid meet" version="1.0"><path fill="rgb(45.878601%, 45.878601%, 96.078491%)" d="M 256.648438 118.351562 C 252 113.699219 244.648438 113.699219 240 118.351562 L 201 157.351562 L 198.898438 155.25 C 198 154.351562 196.648438 154.351562 195.75 155.25 L 180 170.851562 C 166.949219 166.800781 152.851562 170.25 143.25 179.851562 C 132.601562 190.5 128.851562 204.898438 125.550781 217.800781 C 125.25 219 124.949219 220.351562 124.648438 221.550781 L 115.800781 228.601562 C 115.351562 229.050781 114.898438 229.648438 114.898438 230.25 C 114.898438 231.898438 115.949219 234.898438 119.851562 236.101562 C 119.101562 237.75 118.199219 239.550781 117.148438 241.050781 C 116.398438 242.101562 116.699219 243.449219 117.75 244.199219 C 118.050781 244.351562 118.351562 244.5 118.648438 244.5 C 127.949219 246.148438 137.25 247.050781 146.699219 247.199219 C 163.648438 247.199219 182.851562 243.898438 195 231.75 C 204.601562 222.148438 208.050781 208.050781 204 195 L 219.75 179.398438 C 220.199219 178.949219 220.351562 178.351562 220.351562 177.75 C 220.351562 177.148438 220.050781 176.550781 219.75 176.25 L 217.648438 174 L 256.648438 135.148438 C 261.300781 130.5 261.300781 123 256.648438 118.351562 Z M 146.398438 183.148438 C 157.050781 172.648438 173.398438 170.699219 186.148438 178.648438 C 179.550781 179.851562 173.101562 181.5 166.648438 183.601562 C 152.699219 188.550781 139.5 202.648438 131.699219 212.101562 C 134.699219 201.449219 138.449219 191.101562 146.398438 183.148438 Z M 190.949219 182.25 C 191.25 182.550781 191.550781 182.699219 191.851562 183 C 193.5 184.648438 195.148438 186.601562 196.351562 188.550781 C 188.851562 189.300781 168.148438 192.148438 148.648438 200.550781 C 154.648438 195 161.398438 190.050781 168.300781 187.648438 C 175.648438 185.398438 183.300781 183.601562 190.949219 182.25 Z M 191.851562 228.449219 C 174 246.300781 139.648438 243.449219 122.699219 240.75 C 123.300781 239.550781 124.050781 238.199219 124.648438 236.699219 C 130.050781 236.25 149.550781 234.449219 161.398438 231.601562 C 175.199219 228 188.699219 213 189.300781 212.398438 C 190.199219 211.5 190.050781 210 189.148438 209.25 C 188.25 208.351562 186.75 208.5 186 209.398438 C 185.851562 209.550781 172.800781 223.949219 160.199219 227.101562 C 147.601562 230.25 125.101562 232.050781 123 232.199219 C 121.800781 232.199219 120.75 231.898438 119.851562 231.148438 L 127.5 225 C 130.351562 224.699219 141.449219 223.5 149.101562 221.25 C 158.101562 218.550781 162.300781 214.648438 162.449219 214.5 C 163.351562 213.601562 163.351562 212.25 162.449219 211.351562 C 161.550781 210.449219 160.199219 210.449219 159.300781 211.199219 C 159.300781 211.199219 155.699219 214.648438 147.75 216.898438 C 142.351562 218.25 136.800781 219.300781 131.25 219.898438 C 133.050781 217.5 135.601562 214.351562 138.601562 210.898438 C 161.699219 196.949219 193.050781 193.5 198.601562 193.050781 C 203.851562 205.199219 201.148438 219.148438 191.851562 228.449219 Z M 202.351562 190.351562 C 198.75 182.550781 192.449219 176.25 184.648438 172.648438 L 197.25 160.050781 L 210 172.800781 L 212.851562 175.648438 L 214.949219 177.75 Z M 253.351562 131.851562 L 214.351562 170.851562 L 204.148438 160.5 L 243.148438 121.5 C 246 118.648438 250.5 118.648438 253.351562 121.5 C 256.199219 124.351562 256.199219 129 253.351562 131.851562 Z M 253.351562 131.851562 " fill-opacity="1" fill-rule="nonzero"/><path fill="rgb(45.878601%, 45.878601%, 96.078491%)" d="M 229.5 230.699219 L 203.398438 230.699219 C 202.199219 230.699219 201.148438 231.75 201.148438 232.949219 C 201.148438 234.148438 202.199219 235.199219 203.398438 235.199219 L 229.5 235.199219 C 231.75 235.199219 233.398438 237 233.398438 239.101562 C 233.398438 241.351562 231.601562 243 229.5 243 L 215.851562 243 C 214.648438 243 213.601562 244.050781 213.601562 245.25 C 213.601562 250.949219 209.101562 255.449219 203.398438 255.449219 L 117.148438 255.449219 C 115.949219 255.449219 114.898438 256.5 114.898438 257.699219 C 114.898438 258.898438 115.949219 259.949219 117.148438 259.949219 L 203.398438 259.949219 C 210.601562 259.949219 216.898438 254.699219 217.949219 247.5 L 229.5 247.5 C 234.148438 247.5 238.050781 243.75 238.050781 238.949219 C 237.898438 234.449219 234.148438 230.699219 229.5 230.699219 Z M 229.5 230.699219 " fill-opacity="1" fill-rule="nonzero"/><path fill="rgb(45.878601%, 45.878601%, 96.078491%)" d="M 246.449219 199.949219 L 243 199.949219 L 243 194.25 C 243 193.050781 241.949219 192 240.75 192 C 239.550781 192 238.5 193.050781 238.5 194.25 L 238.5 199.949219 L 235.050781 199.949219 C 233.851562 199.949219 232.800781 201 232.800781 202.199219 C 232.800781 203.398438 233.851562 204.449219 235.050781 204.449219 L 238.5 204.449219 L 238.5 210.148438 C 238.5 211.351562 239.550781 212.398438 240.75 212.398438 C 241.949219 212.398438 243 211.351562 243 210.148438 L 243 204.449219 L 246.449219 204.449219 C 247.648438 204.449219 248.699219 203.398438 248.699219 202.199219 C 248.699219 201 247.648438 199.949219 246.449219 199.949219 Z M 246.449219 199.949219 " fill-opacity="1" fill-rule="nonzero"/><path fill="rgb(45.878601%, 45.878601%, 96.078491%)" d="M 129.601562 155.699219 L 134.101562 155.699219 L 134.101562 161.398438 C 134.101562 162.601562 135.148438 163.648438 136.351562 163.648438 C 137.550781 163.648438 138.601562 162.601562 138.601562 161.398438 L 138.601562 155.699219 L 143.101562 155.699219 C 144.300781 155.699219 145.351562 154.648438 145.351562 153.449219 C 145.351562 152.25 144.300781 151.199219 143.101562 151.199219 L 138.601562 151.199219 L 138.601562 145.5 C 138.601562 144.300781 137.550781 143.25 136.351562 143.25 C 135.148438 143.25 134.101562 144.300781 134.101562 145.5 L 134.101562 151.199219 L 129.601562 151.199219 C 128.398438 151.199219 127.351562 152.25 127.351562 153.449219 C 127.351562 154.648438 128.398438 155.699219 129.601562 155.699219 Z M 129.601562 155.699219 " fill-opacity="1" fill-rule="nonzero"/><path fill="rgb(45.878601%, 45.878601%, 96.078491%)" d="M 189.75 127.351562 L 194.25 127.351562 L 194.25 133.050781 C 194.25 134.25 195.300781 135.300781 196.5 135.300781 C 197.699219 135.300781 198.75 134.25 198.75 133.050781 L 198.75 127.351562 L 203.25 127.351562 C 204.449219 127.351562 205.5 126.300781 205.5 125.101562 C 205.5 123.898438 204.449219 122.851562 203.25 122.851562 L 198.75 122.851562 L 198.75 117.148438 C 198.75 115.949219 197.699219 114.898438 196.5 114.898438 C 195.300781 114.898438 194.25 115.949219 194.25 117.148438 L 194.25 122.851562 L 189.75 122.851562 C 188.550781 122.851562 187.5 123.898438 187.5 125.101562 C 187.5 126.300781 188.550781 127.351562 189.75 127.351562 Z M 189.75 127.351562 " fill-opacity="1" fill-rule="nonzero"/></svg>