<svg id="Layer_1" data-name="Layer 1" xmlns="http://www.w3.org/2000/svg" viewBox="0 0 74.68 38.01"><defs><style>.cls-1{fill:#77b1e3;}.cls-2{fill:#c81e29;}.cls-3{fill:#376baf;}.cls-4{fill:#76b0e3;}.cls-5{fill:#9b4967;}.cls-6{fill:#8c4c70;}.cls-7{fill:#586da5;}.cls-8{fill:#7c5882;}.cls-9{fill:#cb3843;}.cls-10{fill:#b54053;}.cls-11{fill:#4b71ae;}.cls-12{fill:#8f5f82;}.cls-13{fill:#62679c;}.cls-14{fill:#fbfdfd;}.cls-15{fill:#fefefe;}</style></defs><title>logonationwide</title><path class="cls-1" d="M53.44,13.38A14.76,14.76,0,0,0,47.73,3.24,14.58,14.58,0,0,0,36.33.16a11.91,11.91,0,0,0-5.9,2.26,24.49,24.49,0,0,0-3.11,2.39,15.24,15.24,0,0,0-3.58,6.48c0,.14-.14.3,0,.44s.4.61.72.81a12.46,12.46,0,0,1,2.29-5.41.35.35,0,0,1,.05-.08c.05.06,0,.08,0,.08A11.07,11.07,0,0,0,26.54,9c0,.2-.14.32-.24.44a11.12,11.12,0,0,0-1.77,3.08c0,.16,0,.36.21.37s.19-.21.26-.33c.15-.28.26-.57.42-.84a8.5,8.5,0,0,1,1.25-1.81A6.42,6.42,0,0,0,29,13.26c.21.17.11.3,0,.45-.39.77-.68,1.58-1,2.39a1.05,1.05,0,0,0,.24,1.34c.1.09.15.28.29.26s.16-.24.2-.38a24.85,24.85,0,0,1,1-2.93c.12-.27.24-.38.54-.2a14,14,0,0,0,4.61,1.68c.25,0,.39.1.33.43-.12.71-.14,1.45-.28,2.16a12.66,12.66,0,0,1-.39,2.74c0,.08,0,.13.09.15a12.33,12.33,0,0,0,2.91.93,16.2,16.2,0,0,0,4.34-.23c1.37-.25,1.39-.26,1.38,1.12,0,.42.11.62.54.6a.74.74,0,0,1,.26,0c.41.15.47-.06.46-.4s0-.84,0-1.25a.69.69,0,0,1,.6-.88,13.65,13.65,0,0,0,3.43-1.57c.58-.36,1.1-.81,1.71-1.27,0,.67.11,1.23.11,1.8s-.08,1-.12,1.45a2.15,2.15,0,0,1-1.07,1.78,2.19,2.19,0,0,0-.74.61,1,1,0,0,0,.7-.14.31.31,0,0,1,.5,0c.23.19,1.23-.15,1.4-.41A14.87,14.87,0,0,0,53.44,13.38ZM49.58,23.66s0,0,0,0l0,0,0,0ZM51.08,9l0,0V9h0l0,0a0,0,0,0,0,0,0c-.15-.17-.31-.35-.45-.53a3,3,0,0,1-.22-.28l-.07-.11-.11-.19a.94.94,0,0,1-.1-.23,1.71,1.71,0,0,1-.09-.3l0-.12a2.36,2.36,0,0,1,0-.28A7.48,7.48,0,0,1,51.08,9ZM49.63,7.34A16,16,0,0,0,47.46,5.8l-.09,0A8,8,0,0,1,45,3.6c-.2-.27-.43-.52-.67-.8C46.38,2.88,49.23,5.32,49.63,7.34Zm.12,1.06a5,5,0,0,1-1.32,3.24A21.61,21.61,0,0,0,45,7.76c-.14-.13-.11-.22,0-.35a3.22,3.22,0,0,0,.68-1.71c0-.27.15-.27.34-.17a13.67,13.67,0,0,1,3.56,2.4A.6.6,0,0,1,49.75,8.4ZM44.84,2.5c-1,.13-1.64-.53-2.39-.85A8.07,8.07,0,0,1,44.84,2.5Zm-9-.8a8.89,8.89,0,0,1,1.94,1.46,4.84,4.84,0,0,0-1.66-1.8,9.8,9.8,0,0,1,3.14-.25,7.49,7.49,0,0,0-.61,2.13c.28-.51.57-1,.86-1.52a.78.78,0,0,1,1-.42,8.71,8.71,0,0,1,2.65,1.12,9,9,0,0,0-3.4.81c.21.11.38,0,.55,0a12.41,12.41,0,0,1,2.49-.46,1.43,1.43,0,0,1,1.42.64,2.38,2.38,0,0,1,.58,1.25A24.09,24.09,0,0,0,42.06,4,13.1,13.1,0,0,0,39.26,4a18.2,18.2,0,0,1,5.22.94c.46.15.56.38.42.8,0,.08,0,.16-.07.25-.36,1.13-.53,1.18-1.47.51a22.1,22.1,0,0,0-3.47-2,1.6,1.6,0,0,0-.39-.11,3.76,3.76,0,0,0,1,.65A22.13,22.13,0,0,1,43.6,7.2c.22.18.22.29,0,.47a7.86,7.86,0,0,1-2,1.05c-.33.12-.46,0-.59-.27a23.7,23.7,0,0,0-1.75-3.3c-.09-.15-.15-.35-.43-.41a32.52,32.52,0,0,1,1.57,3.68c.21.62.21.59-.42.7a15.77,15.77,0,0,1-2.17.1c-.46,0-.53-.18-.45-.56.25-1.24.47-2.48.79-3.7,0-.08,0-.17,0-.32a1,1,0,0,0-.32.57,31.08,31.08,0,0,0-1,3.36c-.1.43-.31.52-.7.42a10,10,0,0,1-2-.77c-.31-.16-.3-.28-.08-.53A20.88,20.88,0,0,1,36.9,5a.59.59,0,0,0,.32-.4,13.94,13.94,0,0,0-2.35,1.66c-.45.37-.89.77-1.31,1.19-.21.21-.34.19-.55,0a4.81,4.81,0,0,1-.94-1.29c-.15-.31-.09-.45.23-.58a17.93,17.93,0,0,1,5.17-1.49.25.25,0,0,0,.18-.14c-.39,0-.78.06-1.17.11s-.78.14-1.17.22a16,16,0,0,0-3,.9c-.38.16-.48,0-.39-.33,0-.11,0-.24.07-.35.22-.93.55-1.19,1.48-1.23a15.46,15.46,0,0,1,4.12.4A10.87,10.87,0,0,0,32.93,3a5.86,5.86,0,0,1,2.51-1.42C35.56,1.51,35.73,1.63,35.87,1.7Zm6.34,13c.06.29-.1.31-.3.35a13.42,13.42,0,0,1-3.46.28c-.52,0-1,0-1.56,0-.29,0-.41-.14-.38-.46.17-1.55.37-3.09.62-4.63,0-.27.18-.3.39-.27a9.43,9.43,0,0,0,3.09-.16c.21,0,.28,0,.34.19C41.45,11.53,41.86,13.1,42.21,14.69Zm-8-13C33,2.31,32,3.4,30.43,3.41A11.91,11.91,0,0,1,34.26,1.64ZM31.79,3.52a4.38,4.38,0,0,0-.68,2.07c0,.11-.11.16-.21.2a14.66,14.66,0,0,0-3.77,2.75C26.76,6,29,3.9,31.79,3.52Zm-2.07,8.84c-.11.19-.2.37-.46.14a6.56,6.56,0,0,1-2-2.86.51.51,0,0,1,.12-.59,16.28,16.28,0,0,1,3.51-2.74c.15-.09.32-.21.41.06a3.78,3.78,0,0,0,1.25,1.75,1.41,1.41,0,0,1,.14.17l-.2.25A26,26,0,0,0,29.72,12.36Zm5.4,2.7a15,15,0,0,1-3.26-1l-.56-.27c-1.07-.54-1.07-.54-.49-1.56A30.36,30.36,0,0,1,33,9c.2-.27.36-.31.67-.13A7.2,7.2,0,0,0,36,9.73c.41.08.5.24.39.64-.37,1.42-.64,2.86-.88,4.31C35.46,14.9,35.42,15.09,35.12,15.06Zm7.75,6a19,19,0,0,1-2.51.38c-.63.06-1.27.07-1.91.1l-2-.1c-.28,0-.46-.11-.43-.44l.33-4.7c0-.22.11-.25.3-.23a18.67,18.67,0,0,0,5.43-.26c.26,0,.39,0,.44.27.3,1.54.5,3.1.67,4.66C43.2,21,43.06,21.06,42.87,21.1Zm.29-6.77A40.05,40.05,0,0,0,41.69,10c-.09-.21-.15-.4.15-.49a7.37,7.37,0,0,0,2.45-1.32l.12-.07c.14,0,.2.09.27.15a22.81,22.81,0,0,1,3,3.66.41.41,0,0,1-.1.62,12,12,0,0,1-4,2.1C43.34,14.69,43.23,14.59,43.16,14.33Zm6.66,3.58a14.6,14.6,0,0,1-5,2.7c-.29.1-.4,0-.42-.27a33.67,33.67,0,0,0-.82-4.59c-.05-.22,0-.27.22-.33A12,12,0,0,0,48,13.15c.14-.12.26-.17.37,0a16.28,16.28,0,0,1,1.65,4.3C50.1,17.69,50,17.8,49.82,17.91ZM50.19,15A14.1,14.1,0,0,0,49,12.61a.41.41,0,0,1,0-.51,5.64,5.64,0,0,0,1.27-3.32c2.51,2.77,2.83,5.39.51,8.07C50.61,16.22,50.41,15.6,50.19,15Zm1.31,5.59a2.83,2.83,0,0,1-.6,1.12l-.06.13s0,0,0,0a.6.6,0,0,1,.06-.11,10.16,10.16,0,0,0,.2-2.32,3.65,3.65,0,0,1,.78-3.06,4.26,4.26,0,0,0,.66-1.66A12.6,12.6,0,0,1,51.5,20.58Z"/><path class="cls-2" d="M28,2.88,26.52,3.93A.89.89,0,0,1,26,4a12.73,12.73,0,0,0-5.23,1.15,3.88,3.88,0,0,0-2.05,5.3,12.35,12.35,0,0,0,3.45,4.62c.36.33.75.65,1.19,1l.45-2.87,5.67,7.23-3.12-.28c-1-.1-2.07-.21-3.1-.29-.31,0-.48-.09-.39-.46.11-.53.13-1.07.25-1.59a.58.58,0,0,0-.3-.68,21.83,21.83,0,0,1-5.18-5.06,7.48,7.48,0,0,1-1.52-3.92,4,4,0,0,1,1.69-3.5A9.69,9.69,0,0,1,22.4,3,22.55,22.55,0,0,1,28,2.88Z"/><path class="cls-3" d="M56.13,18.65,55.37,20a25.21,25.21,0,0,0-1.71-8.08c1.42.91,2.72,1.78,4.06,2.58.48.28.53.54.21.94a2.08,2.08,0,0,0-.11,2.84,4.53,4.53,0,0,1,.7,3A4.46,4.46,0,0,1,55.6,25a14.85,14.85,0,0,1-6.17,1.22A40.86,40.86,0,0,1,31.18,22l-.35-.2a4.9,4.9,0,0,1,2.34.2,31.72,31.72,0,0,0,13.6,3.13,19,19,0,0,0,6.38-1,5.47,5.47,0,0,0,2.2-1.44A3.87,3.87,0,0,0,56.13,18.65Z"/><path class="cls-4" d="M45.41,27.48q-.39.22-.78.42a4,4,0,0,1-1.22.45A6.65,6.65,0,0,0,44.06,27c0-.17.1-.34-.12-.37a8.93,8.93,0,0,0-2-.26,28.21,28.21,0,0,1-4.86.22c-1.09,0-1.09,0-1.11-1.11,0-.82,0-.82-.82-1.07L35,24.36c-.23-.11-.31,0-.31.22,0,.44,0,.87,0,1.3s-.07.43-.41.36a18.15,18.15,0,0,1-5.48-2,.91.91,0,0,1-.48-.69,12.09,12.09,0,0,1-.2-1.8.63.63,0,0,0-.71-.56c-.39,0-.21.35-.2.52,0,.47.11.94.19,1.54a7.41,7.41,0,0,1-1.67-1.75c-.36-.55-.56-.65-1.29-.53a15.1,15.1,0,0,0,23.32,6.09A2.49,2.49,0,0,0,45.41,27.48ZM26.74,23.14s0,0,0,0h0l0,0Zm.11.22s-.07,0-.08-.07a.18.18,0,0,1,0-.13.18.18,0,0,1,.11.19,1.61,1.61,0,0,1,1,1.28A4.6,4.6,0,0,1,26.85,23.36Zm4.94,4.37a11.89,11.89,0,0,1-2.09-1.36,2.83,2.83,0,0,1-1-1.65l0-.06.06,0a21.81,21.81,0,0,0,3.47,1.51c.73.21,1.47.4,2.21.55.27,0,.41.15.44.41A5.75,5.75,0,0,0,35.36,29,10.73,10.73,0,0,1,31.79,27.73ZM43,27.06a5.65,5.65,0,0,1-.62,1.53.69.69,0,0,1-.51.31,12.55,12.55,0,0,1-3.35.28c-.52,0-1,0-1.56,0a.55.55,0,0,1-.64-.52c-.08-.46-.17-.91-.25-1.37,0-.24.06-.3.29-.28a21.08,21.08,0,0,0,6.29-.3C42.93,26.65,43,26.75,43,27.06Z"/><path class="cls-5" d="M24.87,33.74a.91.91,0,0,0-.66.7c-.25.79-.53,1.57-.81,2.35,0,.16,0,.36-.29.47l-.78-2.12-.78,2.17a3.58,3.58,0,0,1-.48-1.1c-.26-.66-.48-1.33-.72-2a.55.55,0,0,0-.62-.4c-.37,0-.41.28-.41.59,0,.93,0,1.86,0,2.79l-.14.06L17,34.55v2.24c0,.26.29.19.43.37H16.19c.47-.15.5-.45.48-.79,0-.52,0-1,0-1.56s0-.93-.65-1c.52-.1,1-.17,1.32.35.5.7,1.07,1.34,1.7,2.11,0-.76,0-1.38,0-2,0-.31-.23-.36-.57-.5h2.76c-.41.18-.35.42-.25.69.21.55.4,1.12.62,1.73.65-1.26.77-1.81-.06-2.4a3.9,3.9,0,0,1,1.32,0c-.34.17-.33.41-.22.69a12.48,12.48,0,0,0,.71,1.69c.23-.67.46-1.34.67-2,.08-.24-.22-.2-.34-.38a3.1,3.1,0,0,1,1.18,0Z"/><path class="cls-6" d="M24.87,33.74v0s.06,0,.09,0c1.22,0,2.44-.08,3.66,0a1.51,1.51,0,0,1,1.45,1.54,1.63,1.63,0,0,1-1.33,1.83,8.36,8.36,0,0,1-1.66.06c-.71,0-1.41,0-2.19,0,.54-.09.48-.46.48-.81,0-.59,0-1.18,0-1.76A.69.69,0,0,0,24.87,33.74Zm4.58,1.74a1.38,1.38,0,0,0-1.53-1.54c-.26,0-.35.12-.34.38,0,.75,0,1.49,0,2.23,0,.31.12.39.38.41A1.38,1.38,0,0,0,29.45,35.48Zm-2.39,0c0-.38,0-.76,0-1.14s-.32-.54-.59-.54-.6.1-.58.56a15.86,15.86,0,0,1,0,2.18c0,.47.29.59.6.6a.51.51,0,0,0,.57-.63C27,36.14,27.06,35.79,27.06,35.45Z"/><path class="cls-7" d="M57.67,37.16H56.31c.49-.11.41-.48.41-.82,0-.64,0-1.28,0-1.92,0-.32,0-.58-.44-.67a6.69,6.69,0,0,1,2,0,.81.81,0,0,1,.67.7.77.77,0,0,1-.43.87c-.37.16-.29.33-.1.57.36.44.59,1,1.23,1.2-.52.13-1,.16-1.29-.43a6.56,6.56,0,0,0-.63-.89c-.08-.1-.15-.24-.33-.17s-.15.22-.13.35C57.32,36.39,57,36.93,57.67,37.16Zm-.43-2.5c.11.2-.19.55.2.68a.78.78,0,0,0,.9-.59.68.68,0,0,0-.65-.81C57.07,33.88,57.29,34.34,57.24,34.66Z"/><path class="cls-8" d="M34.81,37.19c.67-.44.68-3.09,0-3.49a11.14,11.14,0,0,1,2.33.08,1.53,1.53,0,0,1,1.16,1.54,1.63,1.63,0,0,1-1.16,1.76A11.79,11.79,0,0,1,34.81,37.19Zm1-1.82a9.86,9.86,0,0,1,0,1.09c0,.42.17.51.52.51a1.36,1.36,0,0,0,1.37-1.45,1.38,1.38,0,0,0-1.28-1.58c-.41,0-.67.05-.6.55A6.46,6.46,0,0,1,35.8,35.37Z"/><path class="cls-9" d="M1,37c.22-.33.08-.71.11-1.06s0-.73,0-1.09,0-1-.66-1.08c.55-.11,1-.15,1.37.4s1,1.29,1.65,2c0-.78,0-1.44,0-2.1,0-.26-.26-.24-.47-.37a3,3,0,0,1,1.22,0c-.52.05-.46.41-.46.73v2.69l-.12.06L1.48,34.68a5.85,5.85,0,0,0,0,2.32v.17H1Z"/><path class="cls-10" d="M12.5,35.45a1.71,1.71,0,1,1,3.42-.05,1.75,1.75,0,0,1-1.69,1.86A1.71,1.71,0,0,1,12.5,35.45Zm.63,0a2.08,2.08,0,0,0,.17,1,.91.91,0,0,0,.9.65.94.94,0,0,0,1-.67,2.52,2.52,0,0,0,0-1.87.91.91,0,0,0-.92-.63.93.93,0,0,0-.9.65A1.91,1.91,0,0,0,13.13,35.41Z"/><path class="cls-11" d="M68.29,37.18c.65-.45.65-3.11-.09-3.49.94,0,1.74,0,2.54,0,.46,0,.14.49.21.74a1.31,1.31,0,0,0-1.46-.52.22.22,0,0,0-.2.25,1.61,1.61,0,0,0,0,.31c.06.24-.19.58.17.72a1,1,0,0,0,1.19-.49,4.83,4.83,0,0,1,0,1.36c-.2-.77-.72-.56-1.14-.58a.17.17,0,0,0-.19.19,1.13,1.13,0,0,0,0,.26c.08.33-.22.77.21,1A1.29,1.29,0,0,0,71,36.45l.15-.19c0,.82-.13.92-.87.92Z"/><path class="cls-12" d="M30.4,37.19c.4-.16.42-.45.42-.79,0-.64,0-1.28,0-1.92,0-.33,0-.66-.4-.79.8,0,1.61,0,2.41,0,.44,0,.18.47.21.77-.22-.59-.68-.54-1.15-.55s-.6.12-.51.53c.05.25-.21.68.2.73s.94.29,1.14-.38v1.12c-.23-.62-.73-.4-1.15-.42-.12,0-.18.08-.19.2a.43.43,0,0,0,0,.16c.1.35-.26.84.24,1.06a1.28,1.28,0,0,0,1.49-.51,1.38,1.38,0,0,1,.17-.15c-.11.9-.12.92-1,.92Z"/><path class="cls-13" d="M53.16,33.69h2c.7,0,.7,0,.62.76a1.32,1.32,0,0,0-1.45-.52c-.15,0-.2.1-.2.24a1.71,1.71,0,0,0,0,.32c.06.24-.18.58.17.72a1,1,0,0,0,1.16-.43,2.53,2.53,0,0,1,0,1.22c-.18-.69-.69-.48-1.11-.5a.18.18,0,0,0-.2.19,1.13,1.13,0,0,0,0,.26c.08.33-.22.78.22,1a1.31,1.31,0,0,0,1.51-.47l.15-.2c0,.85-.13.93-.88.93H53.21c.68-.91.2-2,.34-2.93,0-.29-.13-.44-.48-.42Z"/><path class="cls-13" d="M52.49,33.58v1.27c-.21-.11-.17-.29-.23-.41a.9.9,0,0,0-.85-.57.53.53,0,0,0-.52.35.42.42,0,0,0,.2.54c.33.22.68.41,1,.62.57.35.74.75.55,1.24a1.14,1.14,0,0,1-1.29.63c-.3,0-.59-.3-.93,0A5,5,0,0,1,50.5,36c.08.22.13.34.18.47a.9.9,0,0,0,1,.57.57.57,0,0,0,.56-.38A.5.5,0,0,0,52,36c-.29-.22-.62-.38-.92-.58-.59-.37-.79-.81-.58-1.28a1.08,1.08,0,0,1,1.38-.49C52.07,33.75,52.27,33.84,52.49,33.58Z"/><path class="cls-8" d="M38.59,33.72h1.52c-.7.16-.57.58-.58,1s0,1,0,1.5a.77.77,0,0,0,.86.83.91.91,0,0,0,1-.84c0-.64,0-1.28,0-1.93,0-.29-.18-.4-.4-.51h1.09c-.48.1-.4.47-.4.79,0,.51,0,1,0,1.51-.06.87-.51,1.25-1.4,1.24A1.15,1.15,0,0,1,39,36c0-.53,0-1.07,0-1.61C39,34.1,39,33.82,38.59,33.72Z"/><path class="cls-11" d="M73.74,33.58V34.8c-.22,0-.15-.21-.2-.32a.91.91,0,0,0-.77-.61.57.57,0,0,0-.63.36c-.11.25,0,.44.25.56s.62.37.93.56c.59.36.79.79.6,1.27a1.13,1.13,0,0,1-1.35.61c-.58-.12-.6-.12-.84,0a1.23,1.23,0,0,1,0-.54c0-.19,0-.37,0-.59.2.07.18.23.23.34a.89.89,0,0,0,.83.6.61.61,0,0,0,.69-.35.57.57,0,0,0-.31-.7c-.29-.19-.59-.35-.88-.54-.54-.35-.71-.75-.53-1.21A1.07,1.07,0,0,1,73,33.67C73.27,33.73,73.48,33.88,73.74,33.58Z"/><path class="cls-11" d="M67.81,33.56a4.43,4.43,0,0,1,.1,1.22c-.21-.1-.21-.3-.3-.43a1.08,1.08,0,0,0-1.88.08,2.13,2.13,0,0,0-.09,1.81,1.17,1.17,0,0,0,1.92.42,5.5,5.5,0,0,0,.4-.48,1.55,1.55,0,0,1-2.57.64,2,2,0,0,1-.25-2.36,1.7,1.7,0,0,1,2.07-.73C67.42,33.79,67.62,33.92,67.81,33.56Z"/><path class="cls-8" d="M45.48,34.8c-.11-.07-.15-.08-.16-.1-.41-.74-.79-1-1.37-.82s-.86.62-.9,1.37c-.06,1,.22,1.49.87,1.69s.89,0,1.52-.6a1.07,1.07,0,0,1-.79.84,1.7,1.7,0,0,1-1.84-.5,2,2,0,0,1-.12-2.24,1.72,1.72,0,0,1,2-.74c.18,0,.35.21.57,0s.14.06.15.15C45.43,34.15,45.45,34.44,45.48,34.8Z"/><path class="cls-9" d="M6.47,37.15c.5-.17.43-.41.33-.69S6.56,36,6.21,36a2.1,2.1,0,0,1-.56,0c-.47-.07-.45.34-.59.58s.09.38.28.53h-1c.82-1,1-2.38,1.77-3.6l1.19,2.83c.12.29.21.63.58.77ZM5.41,35.8c1.14.05,1.14.05.73-.92,0-.1-.1-.2-.17-.36Z"/><path class="cls-7" d="M63,33.76a1.4,1.4,0,0,0-.63.78c-.36.91-.74,1.81-1.17,2.86-.35-.78-.63-1.42-.91-2.06-.15-.33-.29-.67-.43-1a1,1,0,0,0-.51-.6h1.33c-.47.16-.3.47-.17.77.26.58.51,1.16.82,1.87l.85-2.1c.1-.26-.07-.39-.28-.53a2,2,0,0,1,1.1,0Z"/><path class="cls-10" d="M10.48,34.51c-.21-.07-.17-.25-.26-.35A.79.79,0,0,0,9.4,34c-.24.06-.11.33-.12.5,0,.65,0,1.31,0,2,0,.31,0,.61.41.7H8.36c.43-.11.4-.44.4-.78,0-.64,0-1.28,0-1.92,0-.16.13-.42-.14-.47a.7.7,0,0,0-.73.15,3.48,3.48,0,0,0-.23.38c-.17-.79-.15-.82.63-.82H9.74C10.49,33.69,10.49,33.69,10.48,34.51Z"/><path class="cls-13" d="M48.76,34.52c-.21-.07-.17-.25-.26-.35a.74.74,0,0,0-.81-.19c-.25.06-.12.32-.13.49,0,.66,0,1.32,0,2,0,.31,0,.62.42.7H46.49a.63.63,0,0,0,.55-.75c0-.64,0-1.28,0-1.92,0-.17.13-.43-.12-.49a.69.69,0,0,0-.8.21c-.06.1-.1.21-.16.33-.19-.75-.13-.83.57-.83H48C48.77,33.69,48.77,33.69,48.76,34.52Z"/><path class="cls-14" d="M26.75,7.13A10.94,10.94,0,0,0,26.54,9c0,.2-.14.32-.25.44a11.34,11.34,0,0,0-1.76,3.08h-.07a12.35,12.35,0,0,1,2.29-5.41Z"/><path class="cls-10" d="M12.07,37.18H10.63c.62-.18.59-.55.59-.93,0-.6,0-1.2,0-1.81,0-.31,0-.6-.45-.66a3.4,3.4,0,0,1,1.42,0c-.43.08-.48.37-.43.69C11.9,35.34,11.44,36.32,12.07,37.18Z"/><path class="cls-11" d="M63,33.76h0a6.17,6.17,0,0,1,1.62-.06c-.67.4-.67,3,0,3.44h-1.4c.41-.13.43-.44.42-.8a17.22,17.22,0,0,1,0-1.76C63.62,34.08,63.46,33.8,63,33.76Z"/><path class="cls-10" d="M1.47,37.17V37l.34.1C1.69,37.23,1.58,37.18,1.47,37.17Z"/><path class="cls-10" d="M1,37v.17l-.28,0C.72,37,.85,37,1,37Z"/><path class="cls-14" d="M50.86,21.68a10.16,10.16,0,0,0,.2-2.32,3.68,3.68,0,0,1,.78-3.06,4.13,4.13,0,0,0,.67-1.66,12.72,12.72,0,0,1-1,5.94,3.11,3.11,0,0,1-.6,1.12Z"/><path class="cls-14" d="M51.1,9h0a0,0,0,0,0,0,0Z"/><path class="cls-14" d="M50.9,21.7l-.07.13s0,0,0,0l.06-.11Z"/><path class="cls-14" d="M26.75,7.13l0-.08c.05.06,0,.08,0,.08Z"/><path class="cls-14" d="M51.09,9l0,.05h0l0,0Z"/><path class="cls-15" d="M49.61,23.63l0,0s0,0,0,0l0,0Z"/><path class="cls-14" d="M26.87,23.35h0a.16.16,0,0,1-.09-.2A.18.18,0,0,1,26.87,23.35Z"/><path class="cls-14" d="M26.75,23.15l-.05,0h0s0,0,0,0Z"/><path class="cls-14" d="M28.73,24.7l0,0,0-.06Z"/><path class="cls-14" d="M29.45,35.48A1.38,1.38,0,0,1,28,37c-.26,0-.39-.1-.38-.41,0-.74,0-1.48,0-2.23,0-.26.08-.35.34-.38A1.38,1.38,0,0,1,29.45,35.48Z"/><path class="cls-15" d="M27.06,35.45c0,.34,0,.69,0,1a.51.51,0,0,1-.57.63c-.31,0-.62-.13-.6-.6a15.86,15.86,0,0,0,0-2.18c0-.46.3-.56.58-.56s.62.08.59.54S27.06,35.07,27.06,35.45Z"/><path class="cls-14" d="M57.24,34.66c0-.32-.17-.78.45-.72a.68.68,0,0,1,.65.81.78.78,0,0,1-.9.59C57.05,35.21,57.35,34.86,57.24,34.66Z"/><path class="cls-14" d="M35.8,35.37a6.46,6.46,0,0,0,0-.88c-.07-.5.19-.58.6-.55a1.38,1.38,0,0,1,1.28,1.58A1.36,1.36,0,0,1,36.31,37c-.35,0-.56-.09-.52-.51A9.86,9.86,0,0,0,35.8,35.37Z"/><path class="cls-14" d="M13.13,35.41a1.91,1.91,0,0,1,.16-.91.93.93,0,0,1,.9-.65.91.91,0,0,1,.92.63,2.52,2.52,0,0,1,0,1.87.94.94,0,0,1-1,.67.91.91,0,0,1-.9-.65A2.08,2.08,0,0,1,13.13,35.41Z"/><path class="cls-14" d="M5.41,35.8,6,34.52c.07.16.13.26.17.36C6.55,35.85,6.55,35.85,5.41,35.8Z"/><path class="cls-1" d="M39.29,4.27c-.12.06-.19,0-.26-.09A.19.19,0,0,1,39.29,4.27Z"/><path class="cls-1" d="M38.59,3.46s0,0,0,0l0,0s0,0,0,0Z"/><path class="cls-1" d="M38.27,4.46l0,0a.19.19,0,0,1,0-.08l0,0A.31.31,0,0,1,38.27,4.46Z"/><path class="cls-1" d="M38,3.37l-.06,0C38,3.29,38,3.33,38,3.37Z"/><path class="cls-1" d="M38,3.39v0h0Z"/><path class="cls-1" d="M38,3.38v0h0Z"/><path class="cls-1" d="M38.06,3.42c-.06.07-.06,0-.07,0Z"/></svg>