<svg id="Layer_1" data-name="Layer 1" xmlns="http://www.w3.org/2000/svg" viewBox="0 0 80.51 80.68"><defs><style>.cls-1{fill:#77b1e3;}.cls-2{fill:#c81e29;}.cls-3{fill:#376baf;}.cls-4{fill:#76b0e3;}.cls-5{fill:#9b4967;}.cls-6{fill:#8c4c70;}.cls-7{fill:#586da5;}.cls-8{fill:#7c5882;}.cls-9{fill:#cb3843;}.cls-10{fill:#b54053;}.cls-11{fill:#4b71ae;}.cls-12{fill:#8f5f82;}.cls-13{fill:#62679c;}.cls-14{fill:#fbfdfd;}.cls-15{fill:#fefefe;}</style></defs><title>Logo-01</title><path class="cls-1" d="M56.49,36.24c-.51-3.19-2.42-5.83-5.71-7.82a17.8,17.8,0,0,0-11.4-2.37,14.21,14.21,0,0,0-5.9,1.74,26,26,0,0,0-3.11,1.84,11.34,11.34,0,0,0-3.58,5c0,.11-.14.23,0,.34s.4.47.72.62a8.65,8.65,0,0,1,2.29-4.17l.05-.06c0,.05,0,.06,0,.06a6.7,6.7,0,0,0-.22,1.46c0,.15-.14.25-.24.34a8.3,8.3,0,0,0-1.77,2.37c0,.13.05.28.21.29s.19-.16.26-.26.26-.44.42-.64a6.73,6.73,0,0,1,1.25-1.4A5.21,5.21,0,0,0,32,36.15c.21.13.11.23,0,.34-.39.6-.68,1.22-1,1.85a.69.69,0,0,0,.24,1c.1.07.15.21.29.2s.16-.19.2-.29a16.43,16.43,0,0,1,1-2.26c.12-.21.24-.3.54-.16A16.76,16.76,0,0,0,38,38.16c.25,0,.39.08.33.33-.12.55-.14,1.12-.28,1.67-.18.7,0,1.43-.39,2.11,0,.06,0,.1.09.11a14.57,14.57,0,0,0,2.91.72A21,21,0,0,0,45,42.92c1.37-.19,1.39-.2,1.38.87,0,.32.11.47.54.46a1.11,1.11,0,0,1,.26,0c.41.12.47,0,.46-.3s0-.65,0-1,.08-.57.6-.68a15.67,15.67,0,0,0,3.43-1.21c.58-.27,1.1-.62,1.71-1,0,.52.11,1,.11,1.39a10.93,10.93,0,0,1-.12,1.12A1.64,1.64,0,0,1,52.22,44a2.26,2.26,0,0,0-.74.47,1.2,1.2,0,0,0,.7-.11.39.39,0,0,1,.5,0,2,2,0,0,0,1.4-.31A9.5,9.5,0,0,0,56.49,36.24Zm-3.86,7.92a0,0,0,0,1,0,0l0,0s0,0,0,0Zm1.5-11.31h0v0h0l0,0v0c-.15-.13-.31-.27-.45-.41l-.22-.22-.07-.08L53.28,32a.52.52,0,0,1-.1-.18.92.92,0,0,1-.09-.23l0-.09a1.43,1.43,0,0,1,0-.22A5.58,5.58,0,0,1,54.13,32.85Zm-1.45-1.27a17,17,0,0,0-2.17-1.18l-.09,0a7.66,7.66,0,0,1-2.34-1.66c-.2-.21-.43-.4-.67-.62C49.43,28.15,52.28,30,52.68,31.58Zm.12.82a3.49,3.49,0,0,1-1.32,2.5,19,19,0,0,0-3.43-3c-.14-.1-.11-.17,0-.27a2.23,2.23,0,0,0,.68-1.32c0-.21.15-.21.34-.13A14.29,14.29,0,0,1,52.62,32,.4.4,0,0,1,52.8,32.4Zm-4.91-4.55a5.22,5.22,0,0,1-2.39-.65A9.55,9.55,0,0,1,47.89,27.85Zm-9-.61a9,9,0,0,1,1.94,1.12A4.36,4.36,0,0,0,39.2,27a12.73,12.73,0,0,1,3.14-.19,4.82,4.82,0,0,0-.61,1.64l.86-1.17a.88.88,0,0,1,1-.32,10.24,10.24,0,0,1,2.65.86,11,11,0,0,0-3.4.63.85.85,0,0,0,.55,0A15.88,15.88,0,0,1,45.9,28a1.63,1.63,0,0,1,1.42.49,1.71,1.71,0,0,1,.58,1A28,28,0,0,0,45.11,29a17.44,17.44,0,0,0-2.8-.05,23.29,23.29,0,0,1,5.22.72c.46.12.56.3.42.62,0,.06,0,.12-.07.19-.36.88-.53.91-1.47.4a23.58,23.58,0,0,0-3.47-1.54,1.59,1.59,0,0,0-.39-.08,3.87,3.87,0,0,0,1,.5,22.88,22.88,0,0,1,3.08,1.7c.22.13.22.22,0,.36a8.78,8.78,0,0,1-2,.81c-.33.09-.46,0-.59-.21a16.91,16.91,0,0,0-1.75-2.54.58.58,0,0,0-.43-.32,22.18,22.18,0,0,1,1.57,2.84c.21.47.21.45-.42.54a19.67,19.67,0,0,1-2.17.07c-.46,0-.53-.14-.45-.43.25-1,.47-1.91.79-2.85a2.19,2.19,0,0,0,0-.25.77.77,0,0,0-.32.44,20.36,20.36,0,0,0-1,2.59c-.1.33-.31.4-.7.33a12.5,12.5,0,0,1-2-.6c-.31-.12-.3-.21-.08-.41A19.63,19.63,0,0,1,40,29.78c.12-.07.27-.12.32-.31a14.54,14.54,0,0,0-2.35,1.28c-.45.29-.89.59-1.31.92a.38.38,0,0,1-.55,0,4,4,0,0,1-.94-1c-.15-.24-.09-.35.23-.45a22.18,22.18,0,0,1,5.17-1.15A.26.26,0,0,0,40.7,29l-1.17.09c-.39,0-.78.11-1.17.17a19,19,0,0,0-3,.69c-.38.12-.48,0-.39-.25,0-.09,0-.19.07-.27.22-.72.55-.92,1.48-.95a19.58,19.58,0,0,1,4.12.31A13.87,13.87,0,0,0,36,28.21a6.56,6.56,0,0,1,2.51-1.09A.83.83,0,0,1,38.92,27.24Zm6.34,10c.06.22-.1.24-.3.27a16.68,16.68,0,0,1-3.46.21c-.52,0-1,0-1.56,0-.29,0-.41-.11-.38-.36.17-1.19.37-2.38.62-3.57,0-.2.18-.23.39-.2a12.28,12.28,0,0,0,3.09-.13c.21,0,.28,0,.34.15A31.82,31.82,0,0,1,45.26,37.25ZM37.31,27.19c-1.23.52-2.26,1.36-3.83,1.36A13.86,13.86,0,0,1,37.31,27.19Zm-2.47,1.45a2.87,2.87,0,0,0-.68,1.59c0,.09-.11.13-.21.16a14.92,14.92,0,0,0-3.77,2.12C29.81,30.57,32,28.93,34.84,28.64Zm-2.07,6.81c-.11.15-.2.29-.46.11a5.31,5.31,0,0,1-2-2.2.34.34,0,0,1,.12-.46,16.6,16.6,0,0,1,3.51-2.11c.15-.07.32-.16.41.05a3.08,3.08,0,0,0,1.25,1.34l.14.14-.2.19A21.25,21.25,0,0,0,32.77,35.45Zm5.4,2.08a17.77,17.77,0,0,1-3.26-.76l-.56-.21c-1.07-.41-1.07-.41-.49-1.2A23.8,23.8,0,0,1,36,32.86a.49.49,0,0,1,.67-.1,8.86,8.86,0,0,0,2.37.67c.41.06.5.18.39.49a29.51,29.51,0,0,0-.88,3.32C38.51,37.41,38.47,37.56,38.17,37.53Zm7.75,4.66c-.82.15-1.66.22-2.51.29-.63.05-1.27.06-1.91.08l-2-.08c-.28,0-.46-.08-.43-.34l.33-3.62c0-.17.11-.19.3-.18a24.05,24.05,0,0,0,5.43-.2c.26,0,.39,0,.44.21a34.32,34.32,0,0,1,.67,3.59C46.25,42.14,46.11,42.16,45.92,42.19ZM46.21,37a26.88,26.88,0,0,0-1.47-3.37c-.09-.16-.15-.31.15-.37a8.5,8.5,0,0,0,2.45-1l.12-.06a.4.4,0,0,1,.27.12,19.53,19.53,0,0,1,3,2.82c.16.2.12.33-.1.48a13.7,13.7,0,0,1-4,1.62C46.39,37.25,46.28,37.17,46.21,37Zm6.66,2.76a16.3,16.3,0,0,1-5,2.08c-.29.08-.4,0-.42-.21a20.53,20.53,0,0,0-.82-3.53c0-.17.05-.21.22-.26a13.45,13.45,0,0,0,4.28-1.75c.14-.09.26-.13.37,0A10.92,10.92,0,0,1,53.1,39.4C53.15,39.56,53,39.65,52.87,39.73Zm.37-2.25a9.83,9.83,0,0,0-1.15-1.83c-.1-.14-.14-.24,0-.4a3.81,3.81,0,0,0,1.27-2.56c2.51,2.14,2.83,4.16.51,6.22C53.66,38.43,53.46,38,53.24,37.48Zm1.31,4.31a2.07,2.07,0,0,1-.6.86l-.06.1a0,0,0,0,1,0,0s0,0,.06-.08a6.12,6.12,0,0,0,.2-1.79,2.37,2.37,0,0,1,.78-2.36,2.86,2.86,0,0,0,.66-1.28A7.77,7.77,0,0,1,54.55,41.79Z"/><path class="cls-2" d="M31.09,28.15,29.57,29a1.21,1.21,0,0,1-.5.07,16,16,0,0,0-5.23.89c-2.2.86-2.93,2.3-2.05,4.08a10.26,10.26,0,0,0,3.45,3.56c.37.26.75.51,1.19.8l.45-2.21,5.68,5.57-3.13-.21c-1-.08-2.06-.17-3.1-.23-.31,0-.47-.06-.39-.36s.13-.82.25-1.22,0-.38-.29-.53a20.3,20.3,0,0,1-5.19-3.9,5.12,5.12,0,0,1-1.52-3,2.9,2.9,0,0,1,1.69-2.69,11.44,11.44,0,0,1,4.57-1.32A28.6,28.6,0,0,1,31.09,28.15Z"/><path class="cls-3" d="M59.18,40.3l-.76,1a15.7,15.7,0,0,0-1.71-6.23c1.43.7,2.73,1.37,4.07,2,.47.22.53.42.2.72A1.35,1.35,0,0,0,60.87,40a2.89,2.89,0,0,1,.7,2.3c-.15,1.45-1.32,2.31-2.91,2.88a18.74,18.74,0,0,1-6.17.94,51.37,51.37,0,0,1-18.26-3.25l-.34-.16a6.15,6.15,0,0,1,2.33.16,40.12,40.12,0,0,0,13.6,2.41,24.2,24.2,0,0,0,6.38-.78,5.72,5.72,0,0,0,2.2-1.11A2.48,2.48,0,0,0,59.18,40.3Z"/><path class="cls-4" d="M48.46,47.11l-.78.32a4.84,4.84,0,0,1-1.22.35,4.79,4.79,0,0,0,.65-1c0-.13.1-.26-.12-.29a12.82,12.82,0,0,0-2.05-.2,35.84,35.84,0,0,1-4.86.17c-1.09,0-1.09,0-1.11-.85,0-.64,0-.64-.82-.83l-.15,0c-.23-.08-.31,0-.31.17,0,.34,0,.67,0,1s-.07.33-.41.27a21.61,21.61,0,0,1-5.48-1.55.72.72,0,0,1-.48-.53,7.28,7.28,0,0,1-.2-1.39c0-.25-.35-.46-.71-.43s-.21.27-.2.4c0,.37.11.73.19,1.19a6.69,6.69,0,0,1-1.67-1.35c-.36-.42-.56-.5-1.29-.41,3.73,7.09,15.43,9.52,23.32,4.7A3,3,0,0,0,48.46,47.11ZM29.79,43.76l0,0h0l0,0Zm.11.17a.12.12,0,0,1-.08,0,.11.11,0,0,1,0-.1c.08,0,.12.08.11.14a1.37,1.37,0,0,1,1,1A3.8,3.8,0,0,1,29.9,43.93Zm4.94,3.37a12.38,12.38,0,0,1-2.09-1,2.15,2.15,0,0,1-1-1.27l0,0,.06,0a27.69,27.69,0,0,0,3.47,1.16c.73.16,1.47.31,2.21.42.27,0,.41.12.44.32a3.69,3.69,0,0,0,.51,1.38A12.86,12.86,0,0,1,34.84,47.3ZM46,46.78A3.82,3.82,0,0,1,45.39,48a.73.73,0,0,1-.51.24,15.61,15.61,0,0,1-3.35.22c-.52,0-1,0-1.56,0s-.58-.13-.64-.4-.17-.71-.25-1.06c0-.19.06-.23.29-.22a27,27,0,0,0,6.29-.23C46,46.47,46.09,46.55,46,46.78Z"/><path class="cls-5" d="M27.93,51.94a.8.8,0,0,0-.67.53c-.25.61-.53,1.22-.81,1.82-.05.12,0,.27-.28.36L25.39,53l-.79,1.66a2.6,2.6,0,0,1-.48-.84c-.25-.51-.48-1-.72-1.54a.55.55,0,0,0-.61-.31c-.38,0-.42.22-.41.45,0,.72,0,1.44,0,2.15l-.13,0L20,52.56c0,.65,0,1.19,0,1.72,0,.2.29.15.42.29H19.24c.48-.12.5-.35.49-.61a8,8,0,0,1,0-1.2c0-.39,0-.72-.65-.8a1.31,1.31,0,0,1,1.32.27c.49.53,1.07,1,1.7,1.62,0-.58,0-1.06,0-1.53,0-.24-.23-.28-.56-.4H24.3c-.42.14-.35.33-.26.53.21.44.4.87.62,1.34.65-1,.77-1.39-.06-1.85a5.82,5.82,0,0,1,1.32,0c-.34.14-.32.32-.22.54a10,10,0,0,0,.71,1.3c.23-.52.46-1,.67-1.55.08-.19-.22-.16-.34-.3a4.29,4.29,0,0,1,1.19,0Z"/><path class="cls-6" d="M27.93,51.94h0s.06,0,.09,0c1.21,0,2.43-.06,3.65,0,.89.07,1.41.52,1.45,1.19s-.43,1.25-1.33,1.41a11.37,11.37,0,0,1-1.65.05c-.71,0-1.42,0-2.19,0,.53-.06.47-.35.47-.62,0-.45,0-.91,0-1.36S28.34,52,27.93,51.94Zm4.57,1.33c0-.76-.62-1.24-1.52-1.18-.27,0-.35.09-.35.29,0,.58,0,1.15,0,1.72,0,.24.13.3.39.32A1.26,1.26,0,0,0,32.5,53.27Zm-2.39,0c0-.29,0-.59,0-.88s-.32-.42-.59-.41-.6.08-.57.43a11.78,11.78,0,0,1,0,1.68c0,.37.28.46.59.46s.63-.13.58-.48A5.33,5.33,0,0,1,30.11,53.25Z"/><path class="cls-7" d="M60.72,54.57H59.37c.48-.08.4-.37.4-.63,0-.5,0-1,0-1.48,0-.25,0-.45-.44-.52a8.81,8.81,0,0,1,2,0,.72.72,0,0,1,.67.54.56.56,0,0,1-.42.67c-.37.12-.3.25-.11.43.37.35.6.79,1.23.93-.52.1-1,.13-1.28-.33a5,5,0,0,0-.63-.68c-.08-.08-.16-.19-.33-.14s-.16.17-.14.27C60.37,54,60.08,54.39,60.72,54.57Zm-.42-1.93c.11.16-.2.43.19.53a.81.81,0,0,0,.9-.45c.09-.32-.21-.6-.65-.63C60.12,52.05,60.35,52.4,60.3,52.64Z"/><path class="cls-8" d="M37.87,54.6c.66-.34.67-2.39,0-2.7a14.78,14.78,0,0,1,2.33.07,1.26,1.26,0,0,1,1.16,1.18,1.3,1.3,0,0,1-1.15,1.36A14.8,14.8,0,0,1,37.87,54.6Zm1-1.41a5.87,5.87,0,0,1,0,.84c-.05.33.16.39.51.39a1.22,1.22,0,0,0,1.37-1.11c0-.71-.47-1.18-1.28-1.22-.4,0-.67,0-.6.42A3.88,3.88,0,0,1,38.86,53.19Z"/><path class="cls-9" d="M4,54.45c.22-.26.09-.55.11-.82s0-.56,0-.84,0-.75-.65-.84c.55-.08,1-.11,1.36.31s1,1,1.66,1.58c0-.6,0-1.11,0-1.61,0-.2-.25-.19-.47-.29a4.15,4.15,0,0,1,1.22,0c-.51,0-.46.31-.46.56,0,.69,0,1.38,0,2.07l-.12.05-2.12-2a3.62,3.62,0,0,0,0,1.79v.13H4Z"/><path class="cls-10" d="M15.55,53.26c0-.81.71-1.4,1.71-1.41A1.53,1.53,0,0,1,19,53.21a1.55,1.55,0,0,1-1.69,1.44A1.54,1.54,0,0,1,15.55,53.26Zm.63,0a1.34,1.34,0,0,0,.17.75,1,1,0,0,0,.9.5A1,1,0,0,0,18.2,54a1.55,1.55,0,0,0,0-1.45,1,1,0,0,0-.93-.48,1,1,0,0,0-.9.5A1.25,1.25,0,0,0,16.18,53.22Z"/><path class="cls-11" d="M71.34,54.59c.65-.35.65-2.4-.09-2.69.94,0,1.75,0,2.54,0,.46,0,.14.38.22.57a1.56,1.56,0,0,0-1.47-.4c-.15,0-.2.08-.2.19a1,1,0,0,0,0,.24c.06.19-.18.45.17.56a1.08,1.08,0,0,0,1.19-.38,2.68,2.68,0,0,1,0,1.05c-.2-.6-.71-.43-1.13-.45-.13,0-.19.05-.2.15a.67.67,0,0,0,0,.2c.08.25-.22.59.21.75A1.58,1.58,0,0,0,74.07,54l.14-.15c0,.63-.12.71-.86.71Z"/><path class="cls-12" d="M33.46,54.59a.5.5,0,0,0,.41-.6c0-.49,0-1,0-1.48,0-.26,0-.51-.41-.62.8,0,1.61,0,2.41,0,.44,0,.18.36.21.59-.22-.45-.68-.41-1.15-.42s-.6.09-.51.41-.2.52.2.56.94.23,1.15-.29v.86c-.23-.48-.74-.31-1.15-.32-.12,0-.19.06-.2.15a.48.48,0,0,0,0,.12c.1.27-.26.66.24.82a1.52,1.52,0,0,0,1.5-.39.82.82,0,0,1,.16-.12c-.1.7-.12.71-1,.71Z"/><path class="cls-13" d="M56.21,51.9h2c.69,0,.69,0,.61.58a1.53,1.53,0,0,0-1.44-.4c-.15,0-.21.08-.21.19a.65.65,0,0,0,0,.24c.05.19-.19.45.16.56a1.08,1.08,0,0,0,1.16-.33,1.52,1.52,0,0,1,0,.94c-.18-.53-.69-.37-1.11-.39-.12,0-.19.05-.19.15a.46.46,0,0,0,0,.2c.08.25-.22.6.22.75A1.58,1.58,0,0,0,58.88,54l.15-.15c0,.65-.13.72-.88.72H56.26c.68-.71.2-1.52.34-2.26,0-.23-.12-.34-.48-.33Z"/><path class="cls-13" d="M55.54,51.81v1c-.2-.08-.17-.22-.22-.31a.91.91,0,0,0-.85-.44.53.53,0,0,0-.53.27c-.09.17,0,.32.2.41s.68.32,1,.48c.57.27.74.58.55.95a1.24,1.24,0,0,1-1.29.49c-.3,0-.58-.23-.92,0a3,3,0,0,1,0-1c.09.17.13.27.18.36a.94.94,0,0,0,1,.44.59.59,0,0,0,.57-.29c.09-.19,0-.35-.23-.45s-.61-.3-.92-.45c-.59-.28-.78-.63-.58-1a1.23,1.23,0,0,1,1.39-.38C55.12,51.94,55.32,52,55.54,51.81Z"/><path class="cls-8" d="M41.64,51.92h1.52c-.7.12-.57.45-.57.73a11.25,11.25,0,0,0,0,1.16c0,.43.33.64.86.63s1-.24,1-.64,0-1,0-1.48c0-.23-.17-.31-.4-.4h1.09c-.48.08-.39.36-.4.61s0,.78,0,1.16c0,.67-.5,1-1.4,1s-1.27-.31-1.31-1c0-.41,0-.83,0-1.24C42,52.21,42,52,41.64,51.92Z"/><path class="cls-11" d="M76.8,51.81v.94c-.23,0-.16-.16-.2-.24a.91.91,0,0,0-.78-.47.61.61,0,0,0-.63.27c-.1.2,0,.34.25.44l.94.43c.59.27.79.6.59,1a1.23,1.23,0,0,1-1.34.46c-.59-.08-.61-.08-.84,0-.1-.13,0-.28-.05-.42s0-.28,0-.45c.21.05.19.17.23.26a.9.9,0,0,0,.83.46c.3,0,.57,0,.69-.27s0-.41-.3-.53-.6-.28-.89-.42c-.54-.27-.71-.58-.53-.93a1.2,1.2,0,0,1,1.32-.42C76.32,51.92,76.54,52,76.8,51.81Z"/><path class="cls-11" d="M70.86,51.8a2.39,2.39,0,0,1,.1.93c-.21-.07-.21-.23-.3-.33a1.26,1.26,0,0,0-1.88.07,1.34,1.34,0,0,0-.09,1.4,1.35,1.35,0,0,0,1.92.32,5.41,5.41,0,0,0,.4-.37c-.22.9-1.83,1.06-2.57.49a1.29,1.29,0,0,1-.25-1.82,2,2,0,0,1,2.07-.57C70.47,52,70.68,52.07,70.86,51.8Z"/><path class="cls-8" d="M48.53,52.75c-.11,0-.15-.06-.16-.08A1.22,1.22,0,0,0,47,52a1.23,1.23,0,0,0,0,2.36,1.59,1.59,0,0,0,1.52-.46,1,1,0,0,1-.79.65,2,2,0,0,1-1.84-.39,1.27,1.27,0,0,1-.12-1.73,2,2,0,0,1,2-.57c.19,0,.35.16.57,0s.14.05.15.12S48.5,52.47,48.53,52.75Z"/><path class="cls-9" d="M9.52,54.56c.5-.13.43-.31.33-.53a.49.49,0,0,0-.58-.33,2.72,2.72,0,0,1-.57,0c-.47,0-.45.27-.58.46s.08.29.27.4h-1c.82-.78,1-1.83,1.77-2.77.41.77.79,1.47,1.18,2.18.13.22.21.48.59.59Zm-1-1c1.13,0,1.13,0,.72-.71L9,52.54Z"/><path class="cls-7" d="M66,52a1.2,1.2,0,0,0-.63.6c-.35.7-.74,1.4-1.17,2.21-.34-.61-.63-1.1-.91-1.59l-.43-.78a.83.83,0,0,0-.51-.45h1.33c-.46.12-.29.36-.16.59.25.45.51.89.81,1.44l.85-1.62c.11-.2-.07-.3-.27-.4A2.36,2.36,0,0,1,66,52Z"/><path class="cls-10" d="M13.53,52.53c-.21-.05-.16-.19-.26-.27a1,1,0,0,0-.82-.14c-.24.05-.11.25-.11.38,0,.51,0,1,0,1.53,0,.24,0,.46.41.53H11.41c.43-.08.41-.34.4-.6,0-.49,0-1,0-1.48,0-.12.13-.33-.15-.36a.85.85,0,0,0-.73.11,3.4,3.4,0,0,0-.23.3c-.17-.61-.15-.63.63-.63h1.46C13.55,51.9,13.55,51.9,13.53,52.53Z"/><path class="cls-13" d="M51.81,52.53c-.21-.05-.17-.19-.26-.26a.88.88,0,0,0-.81-.15c-.24,0-.12.25-.12.38,0,.5,0,1,0,1.52,0,.24,0,.47.42.54H49.54c.51-.1.56-.31.55-.58,0-.5,0-1,0-1.48,0-.13.12-.33-.13-.38a.82.82,0,0,0-.79.16,2.33,2.33,0,0,0-.17.26c-.18-.58-.13-.64.57-.64h1.51C51.83,51.9,51.83,51.9,51.81,52.53Z"/><path class="cls-14" d="M29.81,31.42a6.61,6.61,0,0,0-.22,1.46c0,.15-.14.24-.24.34a8.44,8.44,0,0,0-1.77,2.37h-.07a8.65,8.65,0,0,1,2.29-4.17Z"/><path class="cls-10" d="M15.12,54.58H13.69c.62-.13.59-.42.58-.71V52.48c0-.25,0-.47-.45-.51a4.56,4.56,0,0,1,1.43,0c-.44.06-.49.28-.44.53C15,53.17,14.49,53.92,15.12,54.58Z"/><path class="cls-11" d="M66,52h0a7.21,7.21,0,0,1,1.62-.05c-.67.31-.66,2.34,0,2.65h-1.4c.4-.09.42-.34.41-.62a10.14,10.14,0,0,1,0-1.35C66.67,52.2,66.52,52,66,52Z"/><path class="cls-10" d="M4.52,54.58v-.13l.35.07C4.74,54.63,4.63,54.58,4.52,54.58Z"/><path class="cls-10" d="M4,54.45v.13l-.27,0C3.77,54.45,3.9,54.47,4,54.45Z"/><path class="cls-14" d="M53.92,42.63a6,6,0,0,0,.2-1.78,2.37,2.37,0,0,1,.78-2.36,2.91,2.91,0,0,0,.66-1.28,7.79,7.79,0,0,1-1,4.58,2.17,2.17,0,0,1-.6.87Z"/><path class="cls-14" d="M54.15,32.86h0v0Z"/><path class="cls-14" d="M54,42.66l-.06.09,0,0a.33.33,0,0,1,.06-.1Z"/><path class="cls-14" d="M29.8,31.42l.05-.06c0,.05,0,.06,0,.06Z"/><path class="cls-14" d="M54.14,32.87l.06,0h0a.08.08,0,0,1,0,0Z"/><path class="cls-15" d="M52.66,44.14l0,0,0,0,0,0Z"/><path class="cls-14" d="M29.92,43.92h0a.16.16,0,0,1-.08,0,.11.11,0,0,1,0-.1C29.89,43.81,29.93,43.86,29.92,43.92Z"/><path class="cls-14" d="M29.81,43.77l-.06,0h0l0,0Z"/><path class="cls-14" d="M31.78,45h0l0,0Z"/><path class="cls-14" d="M32.5,53.27A1.26,1.26,0,0,1,31,54.42c-.26,0-.4-.08-.39-.32,0-.57,0-1.14,0-1.72,0-.2.08-.27.35-.29C31.88,52,32.51,52.51,32.5,53.27Z"/><path class="cls-15" d="M30.11,53.25a5.33,5.33,0,0,0,0,.8c.05.35-.24.48-.58.48s-.62-.09-.59-.46a11.78,11.78,0,0,0,0-1.68c0-.35.29-.43.57-.43s.63.06.59.41S30.11,53,30.11,53.25Z"/><path class="cls-14" d="M60.3,52.64c.05-.24-.18-.59.44-.55.44,0,.74.31.65.63a.81.81,0,0,1-.9.45C60.1,53.07,60.41,52.8,60.3,52.64Z"/><path class="cls-14" d="M38.86,53.19a3.88,3.88,0,0,0,0-.68c-.07-.39.2-.44.6-.42.81,0,1.31.51,1.28,1.22a1.22,1.22,0,0,1-1.37,1.11c-.35,0-.56-.06-.51-.39A5.87,5.87,0,0,0,38.86,53.19Z"/><path class="cls-14" d="M16.18,53.23a1.26,1.26,0,0,1,.16-.71,1,1,0,0,1,.9-.5,1,1,0,0,1,.93.48,1.55,1.55,0,0,1,0,1.45,1,1,0,0,1-.95.52,1,1,0,0,1-.9-.5A1.32,1.32,0,0,1,16.18,53.23Z"/><path class="cls-14" d="M8.47,53.52l.55-1,.17.27C9.6,53.56,9.6,53.56,8.47,53.52Z"/><path class="cls-1" d="M42.34,29.22a.22.22,0,0,1-.26-.07A.22.22,0,0,1,42.34,29.22Z"/><path class="cls-1" d="M41.64,28.59l0,0,0,0s0,0,0,0Z"/><path class="cls-1" d="M41.32,29.36l0,0a.14.14,0,0,1,0-.07l0,0A.21.21,0,0,1,41.32,29.36Z"/><path class="cls-1" d="M41,28.52s0,0-.06,0S41,28.49,41,28.52Z"/><path class="cls-1" d="M41,28.54v0h0Z"/><path class="cls-1" d="M41,28.53v0h0Z"/><path class="cls-1" d="M41.11,28.56c-.06.06-.06,0-.07,0Z"/></svg>