<?xml version="1.0" encoding="UTF-8"?><svg xmlns="http://www.w3.org/2000/svg" xmlns:xlink="http://www.w3.org/1999/xlink" width="375" zoomAndPan="magnify" viewBox="0 0 375 374.999991" height="374.999991" preserveAspectRatio="xMidYMid meet" version="1.0"><path fill="rgb(45.878601%, 45.878601%, 96.078491%)" d="M 154.6875 214.453125 L 152.34375 214.453125 C 151.640625 214.453125 151.171875 214.921875 151.171875 215.625 C 151.171875 216.328125 151.640625 216.796875 152.34375 216.796875 L 154.6875 216.796875 C 155.390625 216.796875 155.859375 216.328125 155.859375 215.625 C 155.859375 214.921875 155.390625 214.453125 154.6875 214.453125 Z M 154.6875 214.453125 " fill-opacity="1" fill-rule="nonzero"/><path fill="rgb(45.878601%, 45.878601%, 96.078491%)" d="M 161.71875 214.453125 L 159.375 214.453125 C 158.671875 214.453125 158.203125 214.921875 158.203125 215.625 C 158.203125 216.328125 158.671875 216.796875 159.375 216.796875 L 161.71875 216.796875 C 162.421875 216.796875 162.890625 216.328125 162.890625 215.625 C 162.890625 214.921875 162.421875 214.453125 161.71875 214.453125 Z M 161.71875 214.453125 " fill-opacity="1" fill-rule="nonzero"/><path fill="rgb(45.878601%, 45.878601%, 96.078491%)" d="M 154.6875 219.140625 L 152.34375 219.140625 C 151.640625 219.140625 151.171875 219.609375 151.171875 220.3125 C 151.171875 221.015625 151.640625 221.484375 152.34375 221.484375 L 154.6875 221.484375 C 155.390625 221.484375 155.859375 221.015625 155.859375 220.3125 C 155.859375 219.609375 155.390625 219.140625 154.6875 219.140625 Z M 154.6875 219.140625 " fill-opacity="1" fill-rule="nonzero"/><path fill="rgb(45.878601%, 45.878601%, 96.078491%)" d="M 161.71875 219.140625 L 159.375 219.140625 C 158.671875 219.140625 158.203125 219.609375 158.203125 220.3125 C 158.203125 221.015625 158.671875 221.484375 159.375 221.484375 L 161.71875 221.484375 C 162.421875 221.484375 162.890625 221.015625 162.890625 220.3125 C 162.890625 219.609375 162.421875 219.140625 161.71875 219.140625 Z M 161.71875 219.140625 " fill-opacity="1" fill-rule="nonzero"/><path fill="rgb(45.878601%, 45.878601%, 96.078491%)" d="M 154.6875 223.828125 L 152.34375 223.828125 C 151.640625 223.828125 151.171875 224.296875 151.171875 225 C 151.171875 225.703125 151.640625 226.171875 152.34375 226.171875 L 154.6875 226.171875 C 155.390625 226.171875 155.859375 225.703125 155.859375 225 C 155.859375 224.296875 155.390625 223.828125 154.6875 223.828125 Z M 154.6875 223.828125 " fill-opacity="1" fill-rule="nonzero"/><path fill="rgb(45.878601%, 45.878601%, 96.078491%)" d="M 161.71875 223.828125 L 159.375 223.828125 C 158.671875 223.828125 158.203125 224.296875 158.203125 225 C 158.203125 225.703125 158.671875 226.171875 159.375 226.171875 L 161.71875 226.171875 C 162.421875 226.171875 162.890625 225.703125 162.890625 225 C 162.890625 224.296875 162.421875 223.828125 161.71875 223.828125 Z M 161.71875 223.828125 " fill-opacity="1" fill-rule="nonzero"/><path fill="rgb(45.878601%, 45.878601%, 96.078491%)" d="M 154.6875 228.515625 L 152.34375 228.515625 C 151.640625 228.515625 151.171875 228.984375 151.171875 229.6875 C 151.171875 230.390625 151.640625 230.859375 152.34375 230.859375 L 154.6875 230.859375 C 155.390625 230.859375 155.859375 230.390625 155.859375 229.6875 C 155.859375 228.984375 155.390625 228.515625 154.6875 228.515625 Z M 154.6875 228.515625 " fill-opacity="1" fill-rule="nonzero"/><path fill="rgb(45.878601%, 45.878601%, 96.078491%)" d="M 161.71875 228.515625 L 159.375 228.515625 C 158.671875 228.515625 158.203125 228.984375 158.203125 229.6875 C 158.203125 230.390625 158.671875 230.859375 159.375 230.859375 L 161.71875 230.859375 C 162.421875 230.859375 162.890625 230.390625 162.890625 229.6875 C 162.890625 228.984375 162.421875 228.515625 161.71875 228.515625 Z M 161.71875 228.515625 " fill-opacity="1" fill-rule="nonzero"/><path fill="rgb(45.878601%, 45.878601%, 96.078491%)" d="M 154.6875 233.203125 L 152.34375 233.203125 C 151.640625 233.203125 151.171875 233.671875 151.171875 234.375 C 151.171875 235.078125 151.640625 235.546875 152.34375 235.546875 L 154.6875 235.546875 C 155.390625 235.546875 155.859375 235.078125 155.859375 234.375 C 155.859375 233.671875 155.390625 233.203125 154.6875 233.203125 Z M 154.6875 233.203125 " fill-opacity="1" fill-rule="nonzero"/><path fill="rgb(45.878601%, 45.878601%, 96.078491%)" d="M 161.71875 233.203125 L 159.375 233.203125 C 158.671875 233.203125 158.203125 233.671875 158.203125 234.375 C 158.203125 235.078125 158.671875 235.546875 159.375 235.546875 L 161.71875 235.546875 C 162.421875 235.546875 162.890625 235.078125 162.890625 234.375 C 162.890625 233.671875 162.421875 233.203125 161.71875 233.203125 Z M 161.71875 233.203125 " fill-opacity="1" fill-rule="nonzero"/><path fill="rgb(45.878601%, 45.878601%, 96.078491%)" d="M 154.6875 237.890625 L 152.34375 237.890625 C 151.640625 237.890625 151.171875 238.359375 151.171875 239.0625 C 151.171875 239.765625 151.640625 240.234375 152.34375 240.234375 L 154.6875 240.234375 C 155.390625 240.234375 155.859375 239.765625 155.859375 239.0625 C 155.859375 238.359375 155.390625 237.890625 154.6875 237.890625 Z M 154.6875 237.890625 " fill-opacity="1" fill-rule="nonzero"/><path fill="rgb(45.878601%, 45.878601%, 96.078491%)" d="M 161.71875 237.890625 L 159.375 237.890625 C 158.671875 237.890625 158.203125 238.359375 158.203125 239.0625 C 158.203125 239.765625 158.671875 240.234375 159.375 240.234375 L 161.71875 240.234375 C 162.421875 240.234375 162.890625 239.765625 162.890625 239.0625 C 162.890625 238.359375 162.421875 237.890625 161.71875 237.890625 Z M 161.71875 237.890625 " fill-opacity="1" fill-rule="nonzero"/><path fill="rgb(45.878601%, 45.878601%, 96.078491%)" d="M 159.375 205.078125 L 154.6875 205.078125 C 153.984375 205.078125 153.515625 205.546875 153.515625 206.25 C 153.515625 206.953125 153.984375 207.421875 154.6875 207.421875 L 159.375 207.421875 C 160.078125 207.421875 160.546875 206.953125 160.546875 206.25 C 160.546875 205.546875 160.078125 205.078125 159.375 205.078125 Z M 159.375 205.078125 " fill-opacity="1" fill-rule="nonzero"/><path fill="rgb(45.878601%, 45.878601%, 96.078491%)" d="M 159.375 200.390625 L 154.6875 200.390625 C 153.984375 200.390625 153.515625 200.859375 153.515625 201.5625 C 153.515625 202.265625 153.984375 202.734375 154.6875 202.734375 L 159.375 202.734375 C 160.078125 202.734375 160.546875 202.265625 160.546875 201.5625 C 160.546875 200.859375 160.078125 200.390625 159.375 200.390625 Z M 159.375 200.390625 " fill-opacity="1" fill-rule="nonzero"/><path fill="rgb(45.878601%, 45.878601%, 96.078491%)" d="M 159.375 195.703125 L 154.6875 195.703125 C 153.984375 195.703125 153.515625 196.171875 153.515625 196.875 C 153.515625 197.578125 153.984375 198.046875 154.6875 198.046875 L 159.375 198.046875 C 160.078125 198.046875 160.546875 197.578125 160.546875 196.875 C 160.546875 196.171875 160.078125 195.703125 159.375 195.703125 Z M 159.375 195.703125 " fill-opacity="1" fill-rule="nonzero"/><path fill="rgb(45.878601%, 45.878601%, 96.078491%)" d="M 158.203125 186.328125 L 155.859375 186.328125 C 155.15625 186.328125 154.6875 186.796875 154.6875 187.5 C 154.6875 188.203125 155.15625 188.671875 155.859375 188.671875 L 158.203125 188.671875 C 158.90625 188.671875 159.375 188.203125 159.375 187.5 C 159.375 186.796875 158.90625 186.328125 158.203125 186.328125 Z M 158.203125 186.328125 " fill-opacity="1" fill-rule="nonzero"/><path fill="rgb(45.878601%, 45.878601%, 96.078491%)" d="M 158.203125 181.640625 L 155.859375 181.640625 C 155.15625 181.640625 154.6875 182.109375 154.6875 182.8125 C 154.6875 183.515625 155.15625 183.984375 155.859375 183.984375 L 158.203125 183.984375 C 158.90625 183.984375 159.375 183.515625 159.375 182.8125 C 159.375 182.109375 158.90625 181.640625 158.203125 181.640625 Z M 158.203125 181.640625 " fill-opacity="1" fill-rule="nonzero"/><path fill="rgb(45.878601%, 45.878601%, 96.078491%)" d="M 215.625 214.453125 L 213.28125 214.453125 C 212.578125 214.453125 212.109375 214.921875 212.109375 215.625 C 212.109375 216.328125 212.578125 216.796875 213.28125 216.796875 L 215.625 216.796875 C 216.328125 216.796875 216.796875 216.328125 216.796875 215.625 C 216.796875 214.921875 216.328125 214.453125 215.625 214.453125 Z M 215.625 214.453125 " fill-opacity="1" fill-rule="nonzero"/><path fill="rgb(45.878601%, 45.878601%, 96.078491%)" d="M 222.65625 214.453125 L 220.3125 214.453125 C 219.609375 214.453125 219.140625 214.921875 219.140625 215.625 C 219.140625 216.328125 219.609375 216.796875 220.3125 216.796875 L 222.65625 216.796875 C 223.359375 216.796875 223.828125 216.328125 223.828125 215.625 C 223.828125 214.921875 223.359375 214.453125 222.65625 214.453125 Z M 222.65625 214.453125 " fill-opacity="1" fill-rule="nonzero"/><path fill="rgb(45.878601%, 45.878601%, 96.078491%)" d="M 215.625 219.140625 L 213.28125 219.140625 C 212.578125 219.140625 212.109375 219.609375 212.109375 220.3125 C 212.109375 221.015625 212.578125 221.484375 213.28125 221.484375 L 215.625 221.484375 C 216.328125 221.484375 216.796875 221.015625 216.796875 220.3125 C 216.796875 219.609375 216.328125 219.140625 215.625 219.140625 Z M 215.625 219.140625 " fill-opacity="1" fill-rule="nonzero"/><path fill="rgb(45.878601%, 45.878601%, 96.078491%)" d="M 222.65625 219.140625 L 220.3125 219.140625 C 219.609375 219.140625 219.140625 219.609375 219.140625 220.3125 C 219.140625 221.015625 219.609375 221.484375 220.3125 221.484375 L 222.65625 221.484375 C 223.359375 221.484375 223.828125 221.015625 223.828125 220.3125 C 223.828125 219.609375 223.359375 219.140625 222.65625 219.140625 Z M 222.65625 219.140625 " fill-opacity="1" fill-rule="nonzero"/><path fill="rgb(45.878601%, 45.878601%, 96.078491%)" d="M 215.625 223.828125 L 213.28125 223.828125 C 212.578125 223.828125 212.109375 224.296875 212.109375 225 C 212.109375 225.703125 212.578125 226.171875 213.28125 226.171875 L 215.625 226.171875 C 216.328125 226.171875 216.796875 225.703125 216.796875 225 C 216.796875 224.296875 216.328125 223.828125 215.625 223.828125 Z M 215.625 223.828125 " fill-opacity="1" fill-rule="nonzero"/><path fill="rgb(45.878601%, 45.878601%, 96.078491%)" d="M 222.65625 223.828125 L 220.3125 223.828125 C 219.609375 223.828125 219.140625 224.296875 219.140625 225 C 219.140625 225.703125 219.609375 226.171875 220.3125 226.171875 L 222.65625 226.171875 C 223.359375 226.171875 223.828125 225.703125 223.828125 225 C 223.828125 224.296875 223.359375 223.828125 222.65625 223.828125 Z M 222.65625 223.828125 " fill-opacity="1" fill-rule="nonzero"/><path fill="rgb(45.878601%, 45.878601%, 96.078491%)" d="M 215.625 228.515625 L 213.28125 228.515625 C 212.578125 228.515625 212.109375 228.984375 212.109375 229.6875 C 212.109375 230.390625 212.578125 230.859375 213.28125 230.859375 L 215.625 230.859375 C 216.328125 230.859375 216.796875 230.390625 216.796875 229.6875 C 216.796875 228.984375 216.328125 228.515625 215.625 228.515625 Z M 215.625 228.515625 " fill-opacity="1" fill-rule="nonzero"/><path fill="rgb(45.878601%, 45.878601%, 96.078491%)" d="M 222.65625 228.515625 L 220.3125 228.515625 C 219.609375 228.515625 219.140625 228.984375 219.140625 229.6875 C 219.140625 230.390625 219.609375 230.859375 220.3125 230.859375 L 222.65625 230.859375 C 223.359375 230.859375 223.828125 230.390625 223.828125 229.6875 C 223.828125 228.984375 223.359375 228.515625 222.65625 228.515625 Z M 222.65625 228.515625 " fill-opacity="1" fill-rule="nonzero"/><path fill="rgb(45.878601%, 45.878601%, 96.078491%)" d="M 215.625 233.203125 L 213.28125 233.203125 C 212.578125 233.203125 212.109375 233.671875 212.109375 234.375 C 212.109375 235.078125 212.578125 235.546875 213.28125 235.546875 L 215.625 235.546875 C 216.328125 235.546875 216.796875 235.078125 216.796875 234.375 C 216.796875 233.671875 216.328125 233.203125 215.625 233.203125 Z M 215.625 233.203125 " fill-opacity="1" fill-rule="nonzero"/><path fill="rgb(45.878601%, 45.878601%, 96.078491%)" d="M 222.65625 233.203125 L 220.3125 233.203125 C 219.609375 233.203125 219.140625 233.671875 219.140625 234.375 C 219.140625 235.078125 219.609375 235.546875 220.3125 235.546875 L 222.65625 235.546875 C 223.359375 235.546875 223.828125 235.078125 223.828125 234.375 C 223.828125 233.671875 223.359375 233.203125 222.65625 233.203125 Z M 222.65625 233.203125 " fill-opacity="1" fill-rule="nonzero"/><path fill="rgb(45.878601%, 45.878601%, 96.078491%)" d="M 215.625 237.890625 L 213.28125 237.890625 C 212.578125 237.890625 212.109375 238.359375 212.109375 239.0625 C 212.109375 239.765625 212.578125 240.234375 213.28125 240.234375 L 215.625 240.234375 C 216.328125 240.234375 216.796875 239.765625 216.796875 239.0625 C 216.796875 238.359375 216.328125 237.890625 215.625 237.890625 Z M 215.625 237.890625 " fill-opacity="1" fill-rule="nonzero"/><path fill="rgb(45.878601%, 45.878601%, 96.078491%)" d="M 222.65625 237.890625 L 220.3125 237.890625 C 219.609375 237.890625 219.140625 238.359375 219.140625 239.0625 C 219.140625 239.765625 219.609375 240.234375 220.3125 240.234375 L 222.65625 240.234375 C 223.359375 240.234375 223.828125 239.765625 223.828125 239.0625 C 223.828125 238.359375 223.359375 237.890625 222.65625 237.890625 Z M 222.65625 237.890625 " fill-opacity="1" fill-rule="nonzero"/><path fill="rgb(45.878601%, 45.878601%, 96.078491%)" d="M 220.3125 205.078125 L 215.625 205.078125 C 214.921875 205.078125 214.453125 205.546875 214.453125 206.25 C 214.453125 206.953125 214.921875 207.421875 215.625 207.421875 L 220.3125 207.421875 C 221.015625 207.421875 221.484375 206.953125 221.484375 206.25 C 221.484375 205.546875 221.015625 205.078125 220.3125 205.078125 Z M 220.3125 205.078125 " fill-opacity="1" fill-rule="nonzero"/><path fill="rgb(45.878601%, 45.878601%, 96.078491%)" d="M 220.3125 200.390625 L 215.625 200.390625 C 214.921875 200.390625 214.453125 200.859375 214.453125 201.5625 C 214.453125 202.265625 214.921875 202.734375 215.625 202.734375 L 220.3125 202.734375 C 221.015625 202.734375 221.484375 202.265625 221.484375 201.5625 C 221.484375 200.859375 221.015625 200.390625 220.3125 200.390625 Z M 220.3125 200.390625 " fill-opacity="1" fill-rule="nonzero"/><path fill="rgb(45.878601%, 45.878601%, 96.078491%)" d="M 220.3125 195.703125 L 215.625 195.703125 C 214.921875 195.703125 214.453125 196.171875 214.453125 196.875 C 214.453125 197.578125 214.921875 198.046875 215.625 198.046875 L 220.3125 198.046875 C 221.015625 198.046875 221.484375 197.578125 221.484375 196.875 C 221.484375 196.171875 221.015625 195.703125 220.3125 195.703125 Z M 220.3125 195.703125 " fill-opacity="1" fill-rule="nonzero"/><path fill="rgb(45.878601%, 45.878601%, 96.078491%)" d="M 219.140625 186.328125 L 216.796875 186.328125 C 216.09375 186.328125 215.625 186.796875 215.625 187.5 C 215.625 188.203125 216.09375 188.671875 216.796875 188.671875 L 219.140625 188.671875 C 219.84375 188.671875 220.3125 188.203125 220.3125 187.5 C 220.3125 186.796875 219.84375 186.328125 219.140625 186.328125 Z M 219.140625 186.328125 " fill-opacity="1" fill-rule="nonzero"/><path fill="rgb(45.878601%, 45.878601%, 96.078491%)" d="M 219.140625 181.640625 L 216.796875 181.640625 C 216.09375 181.640625 215.625 182.109375 215.625 182.8125 C 215.625 183.515625 216.09375 183.984375 216.796875 183.984375 L 219.140625 183.984375 C 219.84375 183.984375 220.3125 183.515625 220.3125 182.8125 C 220.3125 182.109375 219.84375 181.640625 219.140625 181.640625 Z M 219.140625 181.640625 " fill-opacity="1" fill-rule="nonzero"/><path fill="rgb(45.878601%, 45.878601%, 96.078491%)" d="M 234.375 209.765625 L 230.859375 209.765625 L 230.859375 193.359375 L 232.03125 193.359375 C 232.734375 193.359375 233.203125 192.890625 233.203125 192.1875 C 233.203125 191.484375 232.734375 191.015625 232.03125 191.015625 L 228.515625 191.015625 L 228.515625 179.296875 L 229.6875 179.296875 C 230.390625 179.296875 230.859375 178.828125 230.859375 178.125 C 230.859375 177.421875 230.390625 176.953125 229.6875 176.953125 L 226.171875 176.953125 L 226.171875 169.921875 L 227.34375 169.921875 C 228.046875 169.921875 228.515625 169.453125 228.515625 168.75 C 228.515625 168.046875 228.046875 167.578125 227.34375 167.578125 L 223.828125 167.578125 L 223.828125 160.546875 L 225 160.546875 C 225.703125 160.546875 226.171875 160.078125 226.171875 159.375 C 226.171875 158.671875 225.703125 158.203125 225 158.203125 L 223.359375 158.203125 L 219.140625 149.765625 L 219.140625 148.828125 L 220.3125 148.828125 C 221.015625 148.828125 221.484375 148.359375 221.484375 147.65625 C 221.484375 146.953125 221.015625 146.484375 220.3125 146.484375 L 219.140625 146.484375 L 219.140625 135.9375 C 219.140625 135.234375 218.671875 134.765625 217.96875 134.765625 C 217.265625 134.765625 216.796875 135.234375 216.796875 135.9375 L 216.796875 146.484375 L 215.625 146.484375 C 214.921875 146.484375 214.453125 146.953125 214.453125 147.65625 C 214.453125 148.359375 214.921875 148.828125 215.625 148.828125 L 216.796875 148.828125 L 216.796875 149.765625 L 212.578125 158.203125 L 210.9375 158.203125 C 210.234375 158.203125 209.765625 158.671875 209.765625 159.375 C 209.765625 160.078125 210.234375 160.546875 210.9375 160.546875 L 212.109375 160.546875 L 212.109375 167.578125 L 208.59375 167.578125 C 207.890625 167.578125 207.421875 168.046875 207.421875 168.75 C 207.421875 169.453125 207.890625 169.921875 208.59375 169.921875 L 209.765625 169.921875 L 209.765625 176.953125 L 206.25 176.953125 C 205.546875 176.953125 205.078125 177.421875 205.078125 178.125 C 205.078125 178.828125 205.546875 179.296875 206.25 179.296875 L 207.421875 179.296875 L 207.421875 191.015625 L 203.90625 191.015625 C 203.203125 191.015625 202.734375 191.484375 202.734375 192.1875 C 202.734375 192.890625 203.203125 193.359375 203.90625 193.359375 L 205.078125 193.359375 L 205.078125 209.765625 L 201.5625 209.765625 C 200.859375 209.765625 200.390625 210.234375 200.390625 210.9375 C 200.390625 211.640625 200.859375 212.109375 201.5625 212.109375 L 202.734375 212.109375 L 202.734375 221.484375 L 172.265625 221.484375 L 172.265625 212.109375 L 173.4375 212.109375 C 174.140625 212.109375 174.609375 211.640625 174.609375 210.9375 C 174.609375 210.234375 174.140625 209.765625 173.4375 209.765625 L 169.921875 209.765625 L 169.921875 193.359375 L 171.09375 193.359375 C 171.796875 193.359375 172.265625 192.890625 172.265625 192.1875 C 172.265625 191.484375 171.796875 191.015625 171.09375 191.015625 L 167.578125 191.015625 L 167.578125 179.296875 L 168.75 179.296875 C 169.453125 179.296875 169.921875 178.828125 169.921875 178.125 C 169.921875 177.421875 169.453125 176.953125 168.75 176.953125 L 165.234375 176.953125 L 165.234375 169.921875 L 166.40625 169.921875 C 167.109375 169.921875 167.578125 169.453125 167.578125 168.75 C 167.578125 168.046875 167.109375 167.578125 166.40625 167.578125 L 162.890625 167.578125 L 162.890625 160.546875 L 164.0625 160.546875 C 164.765625 160.546875 165.234375 160.078125 165.234375 159.375 C 165.234375 158.671875 164.765625 158.203125 164.0625 158.203125 L 162.421875 158.203125 L 158.203125 149.765625 L 158.203125 148.828125 L 159.375 148.828125 C 160.078125 148.828125 160.546875 148.359375 160.546875 147.65625 C 160.546875 146.953125 160.078125 146.484375 159.375 146.484375 L 158.203125 146.484375 L 158.203125 135.9375 C 158.203125 135.234375 157.734375 134.765625 157.03125 134.765625 C 156.328125 134.765625 155.859375 135.234375 155.859375 135.9375 L 155.859375 146.484375 L 154.6875 146.484375 C 153.984375 146.484375 153.515625 146.953125 153.515625 147.65625 C 153.515625 148.359375 153.984375 148.828125 154.6875 148.828125 L 155.859375 148.828125 L 155.859375 149.765625 L 151.640625 158.203125 L 150 158.203125 C 149.296875 158.203125 148.828125 158.671875 148.828125 159.375 C 148.828125 160.078125 149.296875 160.546875 150 160.546875 L 151.171875 160.546875 L 151.171875 167.578125 L 147.65625 167.578125 C 146.953125 167.578125 146.484375 168.046875 146.484375 168.75 C 146.484375 169.453125 146.953125 169.921875 147.65625 169.921875 L 148.828125 169.921875 L 148.828125 176.953125 L 145.3125 176.953125 C 144.609375 176.953125 144.140625 177.421875 144.140625 178.125 C 144.140625 178.828125 144.609375 179.296875 145.3125 179.296875 L 146.484375 179.296875 L 146.484375 191.015625 L 142.96875 191.015625 C 142.265625 191.015625 141.796875 191.484375 141.796875 192.1875 C 141.796875 192.890625 142.265625 193.359375 142.96875 193.359375 L 144.140625 193.359375 L 144.140625 209.765625 L 140.625 209.765625 C 139.921875 209.765625 139.453125 210.234375 139.453125 210.9375 C 139.453125 211.640625 139.921875 212.109375 140.625 212.109375 L 141.796875 212.109375 L 141.796875 239.0625 C 141.796875 239.765625 142.265625 240.234375 142.96875 240.234375 C 143.671875 240.234375 144.140625 239.765625 144.140625 239.0625 L 144.140625 212.109375 L 146.484375 212.109375 L 146.484375 239.0625 C 146.484375 239.765625 146.953125 240.234375 147.65625 240.234375 C 148.359375 240.234375 148.828125 239.765625 148.828125 239.0625 L 148.828125 212.109375 L 165.234375 212.109375 L 165.234375 239.0625 C 165.234375 239.765625 165.703125 240.234375 166.40625 240.234375 C 167.109375 240.234375 167.578125 239.765625 167.578125 239.0625 L 167.578125 212.109375 L 169.921875 212.109375 L 169.921875 239.0625 C 169.921875 239.765625 170.390625 240.234375 171.09375 240.234375 C 171.796875 240.234375 172.265625 239.765625 172.265625 239.0625 L 172.265625 228.515625 L 185.15625 228.515625 C 183.515625 230.859375 180.234375 235.078125 177.1875 238.125 C 176.71875 238.59375 176.71875 239.296875 177.1875 239.765625 C 177.65625 240.234375 178.359375 240.234375 178.828125 239.765625 C 182.34375 236.25 185.859375 231.5625 187.265625 229.21875 C 188.90625 231.5625 192.421875 236.25 195.703125 239.765625 C 195.9375 240 196.171875 240 196.640625 240 C 197.109375 240 197.34375 240 197.578125 239.765625 C 198.046875 239.296875 198.046875 238.59375 197.578125 238.125 C 194.53125 235.078125 191.25 230.859375 189.609375 228.515625 L 202.5 228.515625 L 202.5 239.0625 C 202.5 239.765625 202.96875 240.234375 203.671875 240.234375 C 204.375 240.234375 204.84375 239.765625 204.84375 239.0625 L 204.84375 212.109375 L 207.421875 212.109375 L 207.421875 239.0625 C 207.421875 239.765625 207.890625 240.234375 208.59375 240.234375 C 209.296875 240.234375 209.765625 239.765625 209.765625 239.0625 L 209.765625 212.109375 L 226.171875 212.109375 L 226.171875 239.0625 C 226.171875 239.765625 226.640625 240.234375 227.34375 240.234375 C 228.046875 240.234375 228.515625 239.765625 228.515625 239.0625 L 228.515625 212.109375 L 230.859375 212.109375 L 230.859375 239.0625 C 230.859375 239.765625 231.328125 240.234375 232.03125 240.234375 C 232.734375 240.234375 233.203125 239.765625 233.203125 239.0625 L 233.203125 212.109375 L 234.375 212.109375 C 235.078125 212.109375 235.546875 211.640625 235.546875 210.9375 C 235.546875 210.234375 235.078125 209.765625 234.375 209.765625 Z M 165.234375 191.015625 L 162.890625 191.015625 L 162.890625 179.296875 L 165.234375 179.296875 Z M 153.515625 191.015625 L 153.515625 179.296875 L 160.546875 179.296875 L 160.546875 191.015625 Z M 155.859375 169.921875 L 158.203125 169.921875 L 158.203125 176.953125 L 155.859375 176.953125 Z M 162.890625 176.953125 L 160.546875 176.953125 L 160.546875 169.921875 L 162.890625 169.921875 Z M 160.546875 162.890625 L 153.515625 162.890625 L 153.515625 160.546875 L 160.546875 160.546875 Z M 157.03125 152.578125 L 159.84375 158.203125 L 154.21875 158.203125 Z M 153.515625 165.234375 L 160.546875 165.234375 L 160.546875 167.578125 L 153.515625 167.578125 Z M 151.171875 169.921875 L 153.515625 169.921875 L 153.515625 176.953125 L 151.171875 176.953125 Z M 148.828125 179.296875 L 151.171875 179.296875 L 151.171875 191.015625 L 148.828125 191.015625 Z M 146.484375 193.359375 L 148.828125 193.359375 L 148.828125 209.765625 L 146.484375 209.765625 Z M 151.171875 193.359375 L 162.890625 193.359375 L 162.890625 209.765625 L 151.171875 209.765625 Z M 166.40625 209.765625 L 165.234375 209.765625 L 165.234375 193.359375 L 167.578125 193.359375 L 167.578125 209.765625 Z M 172.265625 226.171875 L 172.265625 223.828125 L 202.734375 223.828125 L 202.734375 226.171875 Z M 226.171875 191.015625 L 223.828125 191.015625 L 223.828125 179.296875 L 226.171875 179.296875 Z M 214.453125 191.015625 L 214.453125 179.296875 L 221.484375 179.296875 L 221.484375 191.015625 Z M 216.796875 169.921875 L 219.140625 169.921875 L 219.140625 176.953125 L 216.796875 176.953125 Z M 223.828125 176.953125 L 221.484375 176.953125 L 221.484375 169.921875 L 223.828125 169.921875 Z M 221.484375 162.890625 L 214.453125 162.890625 L 214.453125 160.546875 L 221.484375 160.546875 Z M 217.96875 152.578125 L 220.78125 158.203125 L 215.15625 158.203125 Z M 214.453125 165.234375 L 221.484375 165.234375 L 221.484375 167.578125 L 214.453125 167.578125 Z M 212.109375 169.921875 L 214.453125 169.921875 L 214.453125 176.953125 L 212.109375 176.953125 Z M 209.765625 179.296875 L 212.109375 179.296875 L 212.109375 191.015625 L 209.765625 191.015625 Z M 207.421875 193.359375 L 209.765625 193.359375 L 209.765625 209.765625 L 207.421875 209.765625 Z M 212.109375 193.359375 L 223.828125 193.359375 L 223.828125 209.765625 L 212.109375 209.765625 Z M 227.34375 209.765625 L 226.171875 209.765625 L 226.171875 193.359375 L 228.515625 193.359375 L 228.515625 209.765625 Z M 227.34375 209.765625 " fill-opacity="1" fill-rule="nonzero"/><path fill="rgb(45.878601%, 45.878601%, 96.078491%)" d="M 178.125 146.25 C 178.59375 146.484375 179.296875 146.484375 179.765625 145.78125 C 180.46875 144.609375 181.640625 143.90625 182.8125 143.90625 C 184.453125 143.90625 185.625 144.84375 186.09375 146.25 L 185.15625 146.25 C 184.453125 146.25 183.984375 146.71875 183.984375 147.421875 C 183.984375 148.125 184.453125 148.59375 185.15625 148.59375 L 189.84375 148.59375 C 190.546875 148.59375 191.015625 148.125 191.015625 147.421875 C 191.015625 146.71875 190.546875 146.25 189.84375 146.25 L 188.90625 146.25 C 189.375 144.84375 190.78125 143.90625 192.1875 143.90625 C 193.359375 143.90625 194.53125 144.609375 195.234375 145.78125 C 195.46875 146.25 196.171875 146.484375 196.875 146.25 C 197.34375 146.015625 197.578125 145.3125 197.34375 144.609375 C 196.40625 142.734375 194.296875 141.796875 192.1875 141.796875 C 190.3125 141.796875 188.671875 142.734375 187.5 144.140625 C 186.328125 142.734375 184.6875 141.796875 182.8125 141.796875 C 180.703125 141.796875 178.828125 142.96875 177.65625 144.609375 C 177.421875 145.3125 177.65625 146.015625 178.125 146.25 Z M 178.125 146.25 " fill-opacity="1" fill-rule="nonzero"/><path fill="rgb(45.878601%, 45.878601%, 96.078491%)" d="M 199.21875 165.234375 L 206.25 165.234375 C 206.953125 165.234375 207.421875 164.765625 207.421875 164.0625 C 207.421875 163.359375 206.953125 162.890625 206.25 162.890625 L 199.21875 162.890625 C 198.515625 162.890625 198.046875 163.359375 198.046875 164.0625 C 198.046875 164.765625 198.515625 165.234375 199.21875 165.234375 Z M 199.21875 165.234375 " fill-opacity="1" fill-rule="nonzero"/><path fill="rgb(45.878601%, 45.878601%, 96.078491%)" d="M 239.0625 141.796875 L 227.34375 141.796875 C 226.640625 141.796875 226.171875 142.265625 226.171875 142.96875 C 226.171875 143.671875 226.640625 144.140625 227.34375 144.140625 L 239.0625 144.140625 C 239.765625 144.140625 240.234375 143.671875 240.234375 142.96875 C 240.234375 142.265625 239.765625 141.796875 239.0625 141.796875 Z M 239.0625 141.796875 " fill-opacity="1" fill-rule="nonzero"/><path fill="rgb(45.878601%, 45.878601%, 96.078491%)" d="M 141.796875 185.15625 C 141.796875 184.453125 141.328125 183.984375 140.625 183.984375 L 131.25 183.984375 C 130.546875 183.984375 130.078125 184.453125 130.078125 185.15625 C 130.078125 185.859375 130.546875 186.328125 131.25 186.328125 L 140.625 186.328125 C 141.328125 186.328125 141.796875 185.859375 141.796875 185.15625 Z M 141.796875 185.15625 " fill-opacity="1" fill-rule="nonzero"/></svg>