<?xml version="1.0" encoding="UTF-8"?><svg xmlns="http://www.w3.org/2000/svg" xmlns:xlink="http://www.w3.org/1999/xlink" width="375" zoomAndPan="magnify" viewBox="0 0 375 374.999991" height="374.999991" preserveAspectRatio="xMidYMid meet" version="1.0"><path fill="rgb(45.878601%, 45.878601%, 96.078491%)" d="M 191.71875 155.625 L 200.15625 155.625 C 200.859375 155.625 201.5625 154.921875 201.5625 154.21875 L 201.5625 152.8125 C 201.5625 151.171875 202.734375 150 204.375 150 C 206.015625 150 207.1875 151.40625 207.1875 152.8125 L 207.1875 154.21875 C 207.1875 154.921875 207.890625 155.625 208.59375 155.625 C 209.296875 155.625 210 154.921875 210 154.21875 L 210 151.40625 C 210 147.421875 213.28125 144.140625 217.03125 144.140625 C 221.015625 144.140625 224.0625 147.421875 224.0625 151.40625 L 224.0625 154.21875 C 224.0625 154.921875 224.765625 155.625 225.46875 155.625 L 233.90625 155.625 C 234.609375 155.625 235.3125 154.921875 235.3125 154.21875 C 235.3125 153.515625 234.609375 152.8125 233.90625 152.8125 L 226.875 152.8125 L 226.875 151.40625 C 226.875 145.78125 222.421875 141.328125 217.03125 141.328125 C 212.578125 141.328125 209.0625 144.140625 207.65625 148.359375 C 206.71875 147.65625 205.546875 147.1875 204.375 147.1875 C 201.328125 147.1875 198.75 149.765625 198.75 153.046875 L 191.71875 153.046875 C 191.015625 153.046875 190.3125 153.75 190.3125 154.453125 C 190.3125 155.15625 190.78125 155.625 191.71875 155.625 Z M 191.71875 155.625 " fill-opacity="1" fill-rule="nonzero"/><path fill="rgb(45.878601%, 45.878601%, 96.078491%)" d="M 140.625 141.09375 L 152.34375 141.09375 C 153.046875 141.09375 153.515625 140.390625 153.515625 139.6875 C 153.515625 138.984375 153.046875 138.28125 152.34375 138.28125 L 140.625 138.28125 C 139.921875 138.28125 139.453125 138.984375 139.453125 139.6875 C 139.453125 140.625 139.921875 141.09375 140.625 141.09375 Z M 140.625 141.09375 " fill-opacity="1" fill-rule="nonzero"/><path fill="rgb(45.878601%, 45.878601%, 96.078491%)" d="M 214.21875 235.3125 C 213.984375 233.203125 213.984375 231.328125 213.75 229.453125 C 213.75 229.453125 213.75 229.453125 213.75 229.21875 C 211.640625 213.28125 205.78125 204.84375 200.859375 199.453125 C 199.921875 198.28125 198.984375 197.34375 198.046875 196.40625 C 197.109375 195.234375 196.171875 194.53125 195.46875 193.59375 C 191.015625 187.96875 188.671875 182.34375 188.671875 182.34375 C 188.4375 181.875 187.96875 181.640625 187.734375 181.640625 C 187.5 181.640625 186.796875 181.875 186.796875 182.34375 C 186.796875 182.34375 184.453125 187.96875 180 193.59375 C 179.296875 194.53125 178.359375 195.234375 177.421875 196.40625 C 176.484375 197.34375 175.546875 198.28125 174.609375 199.453125 C 169.6875 204.84375 163.59375 213.28125 161.71875 229.21875 C 161.71875 229.21875 161.71875 229.21875 161.71875 229.453125 C 161.484375 231.328125 161.25 233.203125 161.25 235.078125 C 161.25 235.078125 161.25 235.078125 161.25 235.3125 C 161.25 237.1875 161.015625 239.0625 161.015625 241.171875 C 161.015625 241.875 161.484375 242.578125 162.1875 242.578125 C 162.890625 242.578125 163.359375 241.875 163.359375 241.171875 C 163.359375 239.765625 163.359375 238.125 163.359375 236.71875 L 172.734375 236.71875 L 172.734375 241.171875 C 172.734375 241.875 173.203125 242.578125 173.90625 242.578125 C 174.609375 242.578125 175.078125 241.875 175.078125 241.171875 L 175.078125 216.5625 C 179.765625 217.734375 179.765625 226.171875 179.765625 226.640625 L 179.765625 241.171875 C 179.765625 241.875 180.234375 242.578125 180.9375 242.578125 C 181.640625 242.578125 182.109375 241.875 182.109375 241.171875 L 182.109375 227.109375 C 182.109375 222.421875 184.453125 218.203125 187.96875 216.5625 C 191.484375 218.203125 193.828125 222.421875 193.828125 227.109375 L 193.828125 241.171875 C 193.828125 241.875 194.296875 242.578125 195 242.578125 C 195.703125 242.578125 196.171875 241.875 196.171875 241.171875 L 196.171875 226.640625 C 196.171875 226.171875 196.171875 217.96875 200.859375 216.5625 L 200.859375 240.9375 C 200.859375 241.640625 201.328125 242.34375 202.03125 242.34375 C 202.734375 242.34375 203.203125 241.640625 203.203125 240.9375 L 203.203125 236.71875 L 212.578125 236.71875 C 212.578125 238.125 212.578125 239.53125 212.578125 241.171875 C 212.578125 241.875 213.046875 242.578125 213.75 242.578125 C 214.453125 242.578125 214.921875 241.875 214.921875 241.171875 C 214.453125 239.0625 214.453125 237.1875 214.21875 235.3125 Z M 202.734375 228.046875 L 202.734375 225.234375 L 210.703125 225.234375 C 210.9375 226.171875 211.171875 227.109375 211.171875 228.046875 Z M 209.296875 219.375 C 209.53125 220.3125 209.765625 221.25 210 222.1875 L 207.421875 222.1875 L 207.421875 219.375 Z M 193.359375 210.703125 L 193.359375 207.890625 L 200.390625 207.890625 L 200.390625 210.703125 Z M 183.984375 210.703125 L 183.984375 207.890625 L 191.015625 207.890625 L 191.015625 210.703125 Z M 174.609375 210.703125 L 174.609375 207.890625 L 181.640625 207.890625 L 181.640625 210.703125 Z M 169.453125 210.703125 C 169.921875 209.765625 170.625 208.59375 171.09375 207.890625 L 172.265625 207.890625 L 172.265625 210.703125 Z M 186.328125 202.03125 L 186.328125 204.84375 L 179.296875 204.84375 L 179.296875 202.03125 Z M 185.15625 190.3125 L 186.328125 190.3125 L 186.328125 193.125 L 183.046875 193.125 C 183.984375 192.421875 184.453125 191.25 185.15625 190.3125 Z M 189.84375 190.3125 C 190.3125 191.25 191.015625 192.1875 191.71875 193.125 L 188.4375 193.125 L 188.4375 190.3125 Z M 191.015625 196.171875 L 191.015625 199.21875 L 183.984375 199.21875 L 183.984375 196.40625 L 191.015625 196.40625 Z M 188.671875 204.84375 L 188.671875 202.03125 L 195.703125 202.03125 L 195.703125 204.84375 Z M 202.734375 207.890625 L 203.90625 207.890625 C 204.375 208.828125 205.078125 209.765625 205.546875 210.703125 L 202.734375 210.703125 Z M 205.078125 222.1875 L 202.734375 222.1875 L 202.734375 219.375 L 205.078125 219.375 Z M 201.796875 204.84375 L 198.046875 204.84375 L 198.046875 202.03125 L 199.453125 202.03125 C 200.390625 202.96875 201.09375 203.90625 201.796875 204.84375 Z M 196.875 199.21875 L 193.359375 199.21875 L 193.359375 196.40625 L 194.0625 196.40625 C 194.765625 197.109375 195.46875 198.046875 196.40625 198.984375 C 196.640625 198.984375 196.640625 198.984375 196.875 199.21875 Z M 187.5 186.09375 C 187.734375 186.5625 187.96875 187.03125 188.203125 187.5 L 186.796875 187.5 C 187.03125 187.03125 187.265625 186.5625 187.5 186.09375 Z M 180.9375 196.171875 L 181.640625 196.171875 L 181.640625 199.21875 L 178.125 199.21875 C 178.125 199.21875 178.359375 198.984375 178.359375 198.984375 C 179.53125 197.8125 180.234375 197.109375 180.9375 196.171875 Z M 175.546875 202.03125 L 176.953125 202.03125 L 176.953125 204.84375 L 173.203125 204.84375 C 173.90625 203.90625 174.609375 202.96875 175.546875 202.03125 Z M 172.265625 219.375 L 172.265625 222.1875 L 169.921875 222.1875 L 169.921875 219.375 Z M 163.828125 228.046875 C 164.0625 227.109375 164.0625 226.171875 164.296875 225.234375 L 172.265625 225.234375 L 172.265625 228.046875 Z M 167.578125 222.1875 L 165 222.1875 C 165.234375 221.25 165.46875 220.3125 165.703125 219.375 L 167.578125 219.375 Z M 163.359375 231.09375 L 167.578125 231.09375 L 167.578125 233.90625 L 163.125 233.90625 C 163.359375 232.96875 163.359375 232.03125 163.359375 231.09375 Z M 169.921875 233.90625 L 169.921875 231.09375 L 172.265625 231.09375 L 172.265625 233.90625 Z M 180.46875 219.375 L 181.171875 219.375 C 180.9375 219.609375 180.9375 220.078125 180.703125 220.3125 C 180.703125 220.078125 180.46875 219.609375 180.46875 219.375 Z M 193.828125 219.375 L 194.53125 219.375 C 194.296875 219.609375 194.296875 220.078125 194.296875 220.3125 C 194.0625 220.078125 194.0625 219.609375 193.828125 219.375 Z M 196.171875 216.5625 L 191.71875 216.5625 C 190.546875 215.390625 189.375 214.453125 187.734375 213.75 C 187.5 213.75 187.265625 213.75 187.03125 213.75 C 185.625 214.453125 184.21875 215.390625 183.046875 216.5625 L 178.59375 216.5625 C 177.421875 214.921875 175.546875 213.75 173.203125 213.75 C 172.5 213.75 172.03125 214.453125 172.03125 215.15625 L 172.03125 216.5625 L 166.40625 216.5625 C 166.875 215.625 167.109375 214.6875 167.578125 213.75 L 206.953125 213.75 C 207.421875 214.6875 207.65625 215.625 208.125 216.5625 L 202.5 216.5625 L 202.5 215.15625 C 202.5 214.453125 202.03125 213.75 201.328125 213.75 C 199.21875 213.515625 197.34375 214.6875 196.171875 216.5625 Z M 202.734375 231.09375 L 205.078125 231.09375 L 205.078125 233.90625 L 202.734375 233.90625 Z M 207.421875 233.90625 L 207.421875 231.09375 L 211.640625 231.09375 C 211.640625 232.03125 211.875 232.96875 211.875 233.90625 Z M 207.421875 233.90625 " fill-opacity="1" fill-rule="nonzero"/><path fill="rgb(45.878601%, 45.878601%, 96.078491%)" d="M 131.953125 187.265625 C 137.34375 182.8125 141.5625 180 142.96875 179.0625 C 146.71875 182.34375 149.53125 187.03125 151.40625 190.546875 C 151.640625 191.015625 152.109375 191.25 152.34375 191.25 C 152.578125 191.25 152.8125 191.25 153.046875 191.015625 C 153.515625 190.546875 153.75 189.609375 153.28125 188.90625 C 151.171875 184.921875 147.890625 179.53125 143.671875 176.015625 C 143.4375 175.78125 142.96875 175.78125 142.5 176.015625 C 142.265625 176.25 137.578125 179.0625 130.546875 184.6875 C 130.078125 185.15625 129.84375 186.09375 130.3125 186.796875 C 130.546875 187.5 131.25 187.734375 131.953125 187.265625 Z M 131.953125 187.265625 " fill-opacity="1" fill-rule="nonzero"/><path fill="rgb(45.878601%, 45.878601%, 96.078491%)" d="M 231.328125 176.25 C 227.109375 179.765625 223.828125 185.15625 221.71875 189.140625 C 221.25 189.84375 221.484375 190.78125 221.953125 191.25 C 222.1875 191.484375 222.421875 191.484375 222.65625 191.484375 C 223.125 191.484375 223.359375 191.25 223.59375 190.78125 C 225.46875 187.265625 228.515625 182.34375 232.03125 179.296875 C 233.4375 180.234375 237.65625 183.046875 243.046875 187.5 C 243.515625 187.96875 244.21875 187.734375 244.6875 187.03125 C 245.15625 186.328125 244.921875 185.390625 244.453125 184.921875 C 237.421875 179.0625 232.734375 176.25 232.5 176.25 C 232.265625 175.78125 231.796875 175.78125 231.328125 176.25 Z M 231.328125 176.25 " fill-opacity="1" fill-rule="nonzero"/><path fill="rgb(45.878601%, 45.878601%, 96.078491%)" d="M 243.75 207.890625 C 244.453125 207.890625 244.921875 207.1875 244.921875 206.484375 C 244.921875 205.78125 244.453125 205.078125 243.75 205.078125 L 237.890625 205.078125 L 237.890625 202.265625 L 243.75 202.265625 C 243.984375 202.265625 243.984375 202.265625 244.21875 202.265625 C 244.21875 202.265625 244.453125 202.03125 244.453125 202.03125 C 244.453125 202.03125 244.453125 202.03125 244.6875 202.03125 C 244.6875 202.03125 244.6875 202.03125 244.6875 201.796875 C 244.6875 201.796875 244.921875 201.5625 244.921875 201.5625 C 245.15625 201.09375 245.15625 200.859375 244.921875 200.390625 C 244.921875 200.15625 244.6875 200.15625 244.6875 199.921875 C 240 194.0625 232.96875 188.4375 232.734375 188.203125 C 232.265625 187.734375 231.5625 187.96875 231.328125 188.4375 C 230.390625 189.609375 224.765625 196.875 221.71875 204.140625 L 221.71875 195.234375 C 221.71875 194.53125 221.25 193.828125 220.546875 193.828125 L 209.296875 193.828125 C 197.8125 176.71875 188.671875 171.09375 188.203125 170.859375 C 187.96875 170.625 187.5 170.625 187.265625 170.859375 C 186.796875 171.09375 177.65625 176.953125 166.171875 193.828125 L 154.6875 193.828125 C 153.984375 193.828125 153.515625 194.53125 153.515625 195.234375 L 153.515625 204.140625 C 150.234375 196.875 144.609375 189.609375 143.90625 188.4375 C 143.4375 187.96875 142.96875 187.734375 142.5 188.203125 C 142.265625 188.4375 135.234375 194.0625 130.546875 199.921875 C 130.546875 200.15625 130.3125 200.15625 130.3125 200.390625 C 130.3125 200.390625 130.3125 200.625 130.3125 200.625 C 130.3125 200.625 130.3125 200.859375 130.3125 200.859375 C 130.3125 200.859375 130.3125 201.09375 130.3125 201.09375 C 130.3125 201.09375 130.3125 201.328125 130.3125 201.328125 C 130.546875 201.796875 130.546875 202.03125 131.015625 202.03125 C 131.015625 202.03125 131.25 202.03125 131.25 202.03125 C 131.25 202.03125 131.484375 202.03125 131.484375 202.03125 L 137.34375 202.03125 L 137.34375 204.84375 L 131.25 204.84375 C 130.546875 204.84375 130.078125 205.546875 130.078125 206.25 C 130.078125 206.953125 130.546875 207.65625 131.25 207.65625 L 132.421875 207.65625 L 132.421875 210.46875 L 131.25 210.46875 C 130.546875 210.46875 130.078125 211.171875 130.078125 211.875 C 130.078125 212.578125 130.546875 213.28125 131.25 213.28125 L 137.109375 213.28125 L 137.109375 216.09375 L 131.25 216.09375 C 130.546875 216.09375 130.078125 216.796875 130.078125 217.5 C 130.078125 218.203125 130.546875 218.90625 131.25 218.90625 L 132.421875 218.90625 L 132.421875 221.71875 L 131.25 221.71875 C 130.546875 221.71875 130.078125 222.421875 130.078125 223.125 C 130.078125 223.828125 130.546875 224.53125 131.25 224.53125 L 137.109375 224.53125 L 137.109375 227.34375 L 131.25 227.34375 C 130.546875 227.34375 130.078125 228.046875 130.078125 228.75 C 130.078125 229.453125 130.546875 230.15625 131.25 230.15625 L 132.421875 230.15625 L 132.421875 232.96875 L 131.25 232.96875 C 130.546875 232.96875 130.078125 233.671875 130.078125 234.375 C 130.078125 236.25 130.546875 236.71875 131.25 236.71875 L 137.109375 236.71875 L 137.109375 241.171875 C 137.109375 241.875 137.578125 242.578125 138.28125 242.578125 C 138.984375 242.578125 139.453125 241.875 139.453125 241.171875 L 139.453125 236.71875 L 146.484375 236.71875 L 146.484375 241.171875 C 146.484375 241.875 146.953125 242.578125 147.65625 242.578125 C 148.359375 242.578125 148.828125 241.875 148.828125 241.171875 L 148.828125 236.71875 L 153.515625 236.71875 L 153.515625 241.171875 C 153.515625 241.875 153.75 242.34375 154.21875 242.578125 C 154.453125 242.578125 154.453125 242.578125 154.6875 242.578125 C 154.921875 242.578125 154.921875 242.578125 155.15625 242.578125 C 155.625 242.34375 155.859375 241.875 155.859375 241.171875 L 155.859375 196.171875 L 166.40625 196.171875 C 166.640625 196.171875 167.109375 195.9375 167.34375 195.703125 C 177.1875 181.171875 185.390625 174.84375 187.5 173.203125 C 189.609375 174.609375 197.8125 180.9375 207.65625 195.703125 C 207.890625 195.9375 208.125 196.171875 208.59375 196.171875 L 219.140625 196.171875 L 219.140625 241.171875 C 219.140625 241.40625 219.140625 241.640625 219.140625 241.640625 C 219.375 242.109375 219.84375 242.578125 220.3125 242.578125 C 220.546875 242.578125 220.546875 242.578125 220.78125 242.578125 C 221.015625 242.34375 221.25 242.109375 221.484375 241.875 C 221.484375 241.640625 221.484375 241.40625 221.484375 241.40625 L 221.484375 236.71875 L 226.171875 236.71875 L 226.171875 241.171875 C 226.171875 241.875 226.640625 242.578125 227.34375 242.578125 C 228.046875 242.578125 228.515625 241.875 228.515625 241.171875 L 228.515625 236.71875 L 235.546875 236.71875 L 235.546875 241.171875 C 235.546875 241.875 236.015625 242.578125 236.71875 242.578125 C 237.421875 242.578125 237.890625 241.875 237.890625 241.171875 L 237.890625 236.71875 L 243.75 236.71875 C 244.453125 236.71875 244.921875 236.015625 244.921875 235.3125 C 244.921875 234.609375 244.453125 233.90625 243.75 233.90625 L 242.578125 233.90625 L 242.578125 231.09375 L 243.75 231.09375 C 244.453125 231.09375 244.921875 230.390625 244.921875 229.6875 C 244.921875 228.984375 244.453125 228.28125 243.75 228.28125 L 237.890625 228.28125 L 237.890625 225.46875 L 243.75 225.46875 C 244.453125 225.46875 244.921875 224.765625 244.921875 224.0625 C 244.921875 223.359375 244.453125 222.65625 243.75 222.65625 L 242.578125 222.65625 L 242.578125 219.84375 L 243.75 219.84375 C 244.453125 219.84375 244.921875 219.140625 244.921875 218.4375 C 244.921875 217.734375 244.453125 217.03125 243.75 217.03125 L 237.890625 217.03125 L 237.890625 214.21875 L 243.75 214.21875 C 244.453125 214.21875 244.921875 213.515625 244.921875 212.8125 C 244.921875 212.109375 244.453125 211.40625 243.75 211.40625 L 242.578125 211.40625 L 242.578125 208.59375 L 243.75 208.59375 Z M 153.515625 219.375 L 153.515625 222.1875 L 144.140625 222.1875 L 144.140625 219.375 Z M 152.578125 207.890625 C 153.046875 208.828125 153.28125 210 153.28125 210.703125 L 144.140625 210.703125 L 144.140625 207.890625 Z M 134.296875 199.21875 C 135.234375 198.28125 136.171875 197.34375 137.109375 196.40625 L 141.796875 196.40625 L 141.796875 199.21875 Z M 144.140625 196.171875 L 146.484375 196.171875 C 147.1875 197.109375 147.65625 198.046875 148.359375 198.984375 L 144.140625 198.984375 Z M 150 202.03125 C 150.46875 202.96875 150.9375 203.90625 151.40625 204.84375 L 148.828125 204.84375 L 148.828125 202.03125 Z M 153.515625 213.515625 L 153.515625 216.328125 L 148.828125 216.328125 L 148.828125 213.515625 Z M 153.515625 225.234375 L 153.515625 228.046875 L 148.828125 228.046875 L 148.828125 225.234375 Z M 142.734375 190.78125 C 143.203125 191.484375 143.90625 192.421875 144.375 193.125 L 139.921875 193.125 C 141.09375 192.1875 142.265625 191.484375 142.734375 190.78125 Z M 139.453125 202.03125 L 146.484375 202.03125 L 146.484375 204.84375 L 139.453125 204.84375 Z M 134.765625 207.890625 L 141.796875 207.890625 L 141.796875 210.703125 L 134.765625 210.703125 Z M 139.453125 213.515625 L 146.484375 213.515625 L 146.484375 216.328125 L 139.453125 216.328125 Z M 134.765625 219.375 L 141.796875 219.375 L 141.796875 222.1875 L 134.765625 222.1875 Z M 139.453125 225.234375 L 146.484375 225.234375 L 146.484375 228.046875 L 139.453125 228.046875 Z M 134.765625 231.09375 L 141.796875 231.09375 L 141.796875 233.90625 L 134.765625 233.90625 Z M 144.140625 233.90625 L 144.140625 231.09375 L 153.515625 231.09375 L 153.515625 233.90625 Z M 235.546875 204.84375 L 228.515625 204.84375 L 228.515625 202.03125 L 235.546875 202.03125 Z M 221.71875 210.703125 C 221.953125 209.765625 222.1875 208.828125 222.421875 207.890625 L 230.859375 207.890625 L 230.859375 210.703125 Z M 221.484375 222.1875 L 221.484375 219.375 L 230.859375 219.375 L 230.859375 222.1875 Z M 221.484375 228.046875 L 221.484375 225.234375 L 226.171875 225.234375 L 226.171875 228.046875 Z M 221.484375 216.5625 L 221.484375 213.75 L 226.171875 213.75 L 226.171875 216.5625 Z M 225 202.03125 L 226.171875 202.03125 L 226.171875 204.84375 L 223.59375 204.84375 C 224.0625 203.90625 224.53125 202.96875 225 202.03125 Z M 228.515625 196.171875 L 230.859375 196.171875 L 230.859375 199.21875 L 226.640625 199.21875 C 227.34375 198.046875 228.046875 197.109375 228.515625 196.171875 Z M 237.890625 196.171875 C 238.828125 197.109375 239.765625 198.046875 240.703125 198.984375 L 233.203125 198.984375 L 233.203125 196.171875 Z M 232.265625 190.78125 C 232.96875 191.25 233.90625 192.1875 235.078125 193.125 L 230.625 193.125 C 231.09375 192.421875 231.796875 191.484375 232.265625 190.78125 Z M 221.484375 231.09375 L 230.859375 231.09375 L 230.859375 233.90625 L 221.484375 233.90625 Z M 240.234375 233.90625 L 233.203125 233.90625 L 233.203125 231.09375 L 240.234375 231.09375 Z M 235.546875 228.046875 L 228.515625 228.046875 L 228.515625 225.234375 L 235.546875 225.234375 Z M 240.234375 222.1875 L 233.203125 222.1875 L 233.203125 219.375 L 240.234375 219.375 Z M 235.546875 216.5625 L 228.515625 216.5625 L 228.515625 213.75 L 235.546875 213.75 Z M 240.234375 210.703125 L 233.203125 210.703125 L 233.203125 207.890625 L 240.234375 207.890625 Z M 240.234375 210.703125 " fill-opacity="1" fill-rule="nonzero"/></svg>