<?xml version="1.0" encoding="UTF-8"?><svg xmlns="http://www.w3.org/2000/svg" xmlns:xlink="http://www.w3.org/1999/xlink" width="375" zoomAndPan="magnify" viewBox="0 0 375 374.999991" height="374.999991" preserveAspectRatio="xMidYMid meet" version="1.0"><path fill="rgb(45.878601%, 45.878601%, 96.078491%)" d="M 180.46875 221.71875 L 146.484375 223.828125 L 146.484375 216.796875 L 178.359375 212.8125 C 179.0625 212.8125 179.53125 212.109375 179.296875 211.40625 C 179.296875 210.703125 178.59375 210.234375 177.890625 210.46875 L 153.515625 213.515625 L 153.515625 212.109375 L 176.015625 208.59375 C 176.71875 208.59375 177.1875 207.890625 176.953125 207.1875 C 176.953125 206.484375 176.25 206.015625 175.546875 206.25 L 152.109375 209.765625 L 142.734375 209.765625 C 142.734375 209.765625 142.5 209.765625 142.5 209.765625 C 142.5 209.765625 142.5 209.765625 142.265625 209.765625 L 135.234375 212.109375 C 134.765625 212.34375 134.53125 212.8125 134.53125 213.28125 L 134.53125 217.96875 C 134.53125 218.203125 134.53125 218.203125 134.765625 218.4375 C 134.765625 218.4375 134.765625 218.4375 134.765625 218.671875 C 134.765625 218.671875 135 218.90625 135 218.90625 C 135.234375 218.90625 135.46875 219.140625 135.703125 219.140625 L 143.90625 219.140625 L 143.90625 225 C 143.90625 225.234375 144.140625 225.703125 144.375 225.9375 C 144.609375 226.171875 144.84375 226.171875 145.078125 226.171875 L 150.234375 225.9375 L 150.46875 234.609375 C 150.46875 235.3125 150.9375 235.78125 151.640625 235.78125 C 152.34375 235.78125 152.8125 235.3125 152.8125 234.609375 L 152.578125 225.9375 L 161.25 225.46875 L 163.59375 234.84375 C 163.828125 235.3125 164.296875 235.78125 164.765625 235.78125 C 164.765625 235.78125 165 235.78125 165 235.78125 C 165.703125 235.546875 165.9375 235.078125 165.9375 234.375 L 164.0625 225 L 180.46875 224.0625 C 181.171875 224.0625 181.640625 223.359375 181.640625 222.890625 C 181.640625 222.1875 180.9375 221.71875 180.46875 221.71875 Z M 145.3125 214.453125 L 144.140625 214.453125 L 144.140625 212.109375 L 151.171875 212.109375 L 151.171875 213.75 Z M 137.109375 214.21875 L 141.796875 212.578125 L 141.796875 214.6875 L 137.109375 216.328125 Z M 137.109375 214.21875 " fill-opacity="1" fill-rule="nonzero"/><path fill="rgb(45.878601%, 45.878601%, 96.078491%)" d="M 225 226.171875 C 224.296875 226.171875 223.828125 226.640625 223.828125 227.34375 L 223.828125 234.375 C 223.828125 235.078125 224.296875 235.546875 225 235.546875 C 225.703125 235.546875 226.171875 235.078125 226.171875 234.375 L 226.171875 227.34375 C 226.171875 226.640625 225.703125 226.171875 225 226.171875 Z M 225 226.171875 " fill-opacity="1" fill-rule="nonzero"/><path fill="rgb(45.878601%, 45.878601%, 96.078491%)" d="M 244.21875 202.96875 L 239.53125 200.625 C 239.53125 200.625 239.296875 200.625 239.296875 200.625 C 239.296875 200.625 239.0625 200.625 239.0625 200.625 C 236.71875 200.625 234.140625 200.859375 231.796875 201.328125 C 231.09375 201.328125 230.625 202.03125 230.859375 202.734375 C 230.859375 203.4375 231.5625 203.90625 232.265625 203.671875 C 234.140625 203.4375 236.015625 203.203125 237.890625 203.203125 L 237.890625 234.375 C 237.890625 235.078125 238.359375 235.546875 239.0625 235.546875 C 239.765625 235.546875 240.234375 235.078125 240.234375 234.375 L 240.234375 203.4375 L 243.28125 204.84375 C 243.515625 204.84375 243.515625 205.078125 243.75 205.078125 C 244.21875 205.078125 244.6875 204.84375 244.6875 204.375 C 245.15625 203.90625 244.921875 203.203125 244.21875 202.96875 Z M 244.21875 202.96875 " fill-opacity="1" fill-rule="nonzero"/><path fill="rgb(45.878601%, 45.878601%, 96.078491%)" d="M 210.9375 230.859375 L 192.1875 230.859375 C 191.484375 230.859375 191.015625 231.328125 191.015625 232.03125 L 191.015625 234.375 C 191.015625 235.078125 191.484375 235.546875 192.1875 235.546875 C 192.890625 235.546875 193.359375 235.078125 193.359375 234.375 L 193.359375 233.203125 L 209.765625 233.203125 L 209.765625 234.375 C 209.765625 235.078125 210.234375 235.546875 210.9375 235.546875 C 211.640625 235.546875 212.109375 235.078125 212.109375 234.375 L 212.109375 232.03125 C 212.109375 231.328125 211.640625 230.859375 210.9375 230.859375 Z M 210.9375 230.859375 " fill-opacity="1" fill-rule="nonzero"/><path fill="rgb(45.878601%, 45.878601%, 96.078491%)" d="M 220.3125 230.859375 L 215.625 230.859375 C 214.921875 230.859375 214.453125 231.328125 214.453125 232.03125 L 214.453125 234.375 C 214.453125 235.078125 214.921875 235.546875 215.625 235.546875 C 216.328125 235.546875 216.796875 235.078125 216.796875 234.375 L 216.796875 233.203125 L 219.140625 233.203125 L 219.140625 234.375 C 219.140625 235.078125 219.609375 235.546875 220.3125 235.546875 C 221.015625 235.546875 221.484375 235.078125 221.484375 234.375 L 221.484375 232.03125 C 221.484375 231.328125 221.015625 230.859375 220.3125 230.859375 Z M 220.3125 230.859375 " fill-opacity="1" fill-rule="nonzero"/><path fill="rgb(45.878601%, 45.878601%, 96.078491%)" d="M 230.859375 182.578125 C 230.859375 182.109375 228.046875 169.921875 201.5625 169.921875 C 175.078125 169.921875 172.5 182.109375 172.265625 182.578125 C 172.265625 182.8125 172.265625 183.046875 172.265625 183.28125 L 173.90625 187.96875 L 176.015625 194.0625 L 179.0625 202.96875 L 180.234375 206.71875 C 180.234375 206.953125 180.46875 206.953125 180.46875 207.1875 C 180.703125 207.421875 181.171875 207.65625 181.640625 207.421875 C 182.34375 207.1875 182.578125 206.484375 182.34375 206.015625 L 181.40625 203.4375 C 181.40625 203.4375 181.640625 203.4375 181.640625 203.203125 C 181.875 202.96875 182.109375 202.96875 182.578125 202.734375 C 182.8125 202.734375 182.8125 202.5 183.046875 202.5 C 183.28125 202.5 183.515625 202.265625 183.984375 202.265625 C 184.21875 202.265625 184.453125 202.03125 184.6875 202.03125 C 184.921875 202.03125 185.390625 201.796875 185.625 201.796875 C 185.859375 201.796875 186.09375 201.5625 186.328125 201.5625 C 186.796875 201.5625 187.03125 201.328125 187.5 201.328125 C 187.734375 201.328125 188.203125 201.09375 188.4375 201.09375 C 188.90625 201.09375 189.375 200.859375 189.84375 200.859375 C 190.078125 200.859375 190.546875 200.859375 190.78125 200.625 C 191.25 200.625 191.953125 200.625 192.65625 200.390625 C 192.890625 200.390625 193.359375 200.390625 193.59375 200.390625 C 194.53125 200.390625 195.46875 200.390625 196.640625 200.390625 C 197.578125 200.390625 198.75 200.390625 199.921875 200.390625 C 200.390625 200.390625 200.625 200.390625 201.09375 200.390625 C 201.796875 200.390625 202.5 200.390625 203.4375 200.625 C 203.90625 200.625 204.375 200.625 204.84375 200.859375 C 205.546875 200.859375 206.25 201.09375 206.953125 201.09375 C 207.421875 201.09375 207.890625 201.328125 208.59375 201.328125 C 209.296875 201.328125 210 201.5625 210.46875 201.5625 C 210.9375 201.5625 211.640625 201.796875 212.109375 201.796875 C 212.8125 201.796875 213.28125 202.03125 213.984375 202.03125 C 214.453125 202.03125 215.15625 202.265625 215.625 202.5 C 216.328125 202.734375 216.796875 202.734375 217.5 202.96875 C 217.96875 203.203125 218.671875 203.203125 219.140625 203.4375 C 219.609375 203.671875 220.3125 203.671875 220.78125 203.90625 C 221.25 204.140625 221.953125 204.140625 222.421875 204.375 C 222.890625 204.609375 223.125 204.609375 223.59375 204.84375 L 223.59375 211.640625 C 219.140625 209.765625 206.953125 205.078125 198.984375 205.078125 C 189.375 205.078125 182.109375 209.765625 181.875 210 C 181.40625 210.234375 181.171875 210.703125 181.40625 211.171875 L 183.75 222.890625 C 183.75 223.359375 184.453125 223.828125 184.921875 223.828125 L 224.765625 223.828125 C 225.46875 223.828125 225.9375 223.359375 225.9375 222.65625 L 225.9375 204.84375 C 225.9375 204.84375 225.9375 204.84375 226.171875 204.84375 L 226.640625 204.609375 C 226.875 204.609375 226.875 204.375 227.109375 204.375 C 227.34375 204.140625 227.34375 204.140625 227.34375 203.90625 L 230.859375 182.8125 C 230.859375 182.8125 230.859375 182.8125 230.859375 182.578125 Z M 201.5625 172.265625 C 224.296875 172.265625 228.046875 181.640625 228.515625 182.8125 L 227.8125 187.5 C 219.609375 181.40625 207.421875 179.0625 199.21875 179.0625 C 190.078125 179.0625 180.9375 182.8125 175.78125 185.625 L 174.609375 182.8125 C 175.3125 181.171875 179.296875 172.265625 201.5625 172.265625 Z M 221.953125 201.796875 C 221.25 201.5625 220.546875 201.5625 220.078125 201.328125 C 219.609375 201.09375 219.140625 201.09375 218.4375 200.859375 C 217.734375 200.625 217.265625 200.625 216.5625 200.390625 C 216.09375 200.15625 215.390625 200.15625 214.921875 199.921875 C 214.21875 199.6875 213.75 199.6875 213.046875 199.6875 C 212.34375 199.6875 211.875 199.453125 211.171875 199.453125 C 210.46875 199.453125 210 199.21875 209.296875 199.21875 C 208.59375 199.21875 208.125 198.984375 207.421875 198.984375 C 206.71875 198.984375 206.015625 198.75 205.546875 198.75 C 205.078125 198.75 204.375 198.515625 203.90625 198.515625 C 203.203125 198.515625 202.5 198.515625 201.796875 198.28125 C 201.328125 198.28125 200.859375 198.28125 200.390625 198.28125 C 199.21875 198.28125 198.046875 198.28125 197.109375 198.28125 C 195.9375 198.28125 195 198.28125 194.0625 198.28125 C 193.828125 198.28125 193.359375 198.28125 193.125 198.28125 C 192.421875 198.28125 191.953125 198.28125 191.25 198.515625 C 191.015625 198.515625 190.546875 198.515625 190.3125 198.75 C 189.84375 198.75 189.375 198.984375 188.90625 198.984375 C 188.671875 198.984375 188.203125 198.984375 187.96875 199.21875 C 187.5 199.21875 187.03125 199.453125 186.5625 199.453125 C 186.328125 199.453125 186.09375 199.6875 185.625 199.6875 C 185.15625 199.6875 184.921875 199.921875 184.453125 199.921875 C 184.21875 199.921875 183.984375 200.15625 183.75 200.15625 C 183.28125 200.390625 183.046875 200.390625 182.578125 200.625 C 182.34375 200.625 182.34375 200.625 182.109375 200.859375 C 181.640625 201.09375 181.171875 201.328125 180.703125 201.328125 L 178.359375 194.53125 C 178.359375 194.53125 178.59375 194.53125 178.59375 194.296875 C 178.828125 194.296875 179.0625 194.0625 179.0625 194.0625 C 179.296875 193.828125 179.765625 193.828125 180 193.59375 C 180.234375 193.59375 180.46875 193.359375 180.703125 193.359375 C 181.171875 193.125 181.40625 193.125 181.875 192.890625 C 182.109375 192.890625 182.34375 192.65625 182.578125 192.65625 C 183.046875 192.65625 183.28125 192.421875 183.75 192.421875 C 183.984375 192.421875 184.21875 192.1875 184.6875 192.1875 C 185.15625 192.1875 185.625 191.953125 185.859375 191.953125 C 186.09375 191.953125 186.5625 191.71875 186.796875 191.71875 C 187.265625 191.71875 187.734375 191.484375 188.203125 191.484375 C 188.4375 191.484375 188.90625 191.484375 189.140625 191.25 C 189.609375 191.25 190.3125 191.25 190.78125 191.015625 C 191.015625 191.015625 191.25 191.015625 191.71875 191.015625 C 192.65625 191.015625 193.359375 191.015625 194.296875 191.015625 C 195.9375 191.015625 197.578125 191.015625 199.453125 191.015625 C 200.625 191.015625 202.03125 191.25 203.203125 191.25 C 203.90625 191.25 204.609375 191.484375 205.078125 191.484375 C 211.640625 192.1875 219.140625 194.0625 225.703125 198.28125 L 225.703125 198.75 L 225.234375 202.265625 C 225.234375 202.265625 225 202.265625 225 202.265625 C 225 202.265625 225 202.265625 224.765625 202.265625 C 224.296875 202.03125 223.59375 201.796875 222.890625 201.796875 C 222.890625 202.03125 222.421875 201.796875 221.953125 201.796875 Z M 226.40625 195.9375 C 226.40625 195.9375 226.171875 195.703125 226.171875 195.703125 C 225.9375 195.46875 225.46875 195.234375 225.234375 195.234375 C 224.765625 195 224.53125 194.765625 224.0625 194.53125 C 223.828125 194.296875 223.359375 194.296875 223.125 194.0625 C 222.65625 193.828125 222.421875 193.59375 221.953125 193.59375 C 221.71875 193.359375 221.25 193.359375 221.015625 193.125 C 220.546875 192.890625 220.3125 192.890625 219.84375 192.65625 C 219.609375 192.421875 219.140625 192.421875 218.90625 192.1875 C 218.4375 191.953125 218.203125 191.953125 217.734375 191.71875 C 217.5 191.71875 217.03125 191.484375 216.796875 191.484375 C 216.328125 191.25 216.09375 191.25 215.625 191.25 C 215.15625 191.25 214.921875 191.015625 214.453125 191.015625 C 213.984375 191.015625 213.75 190.78125 213.28125 190.78125 C 212.8125 190.78125 212.578125 190.546875 212.109375 190.546875 C 211.640625 190.546875 211.40625 190.3125 210.9375 190.3125 C 210.46875 190.3125 210.234375 190.078125 209.765625 190.078125 C 209.296875 190.078125 209.0625 189.84375 208.59375 189.84375 C 208.359375 189.84375 207.890625 189.609375 207.65625 189.609375 C 207.1875 189.609375 206.953125 189.609375 206.484375 189.375 C 206.25 189.375 205.78125 189.375 205.546875 189.140625 C 205.078125 189.140625 204.84375 189.140625 204.609375 188.90625 C 204.375 188.90625 203.90625 188.90625 203.671875 188.90625 C 203.203125 188.90625 202.96875 188.90625 202.734375 188.90625 C 202.5 188.90625 202.03125 188.90625 201.796875 188.90625 C 201.5625 188.90625 201.09375 188.90625 200.859375 188.90625 C 200.625 188.90625 200.15625 188.90625 199.921875 188.90625 C 199.453125 188.90625 199.21875 188.90625 198.75 188.90625 C 198.515625 188.90625 198.28125 188.90625 198.046875 188.90625 C 197.578125 188.90625 197.109375 188.90625 196.875 188.90625 C 196.640625 188.90625 196.640625 188.90625 196.40625 188.90625 C 195.9375 188.90625 195.234375 188.90625 194.765625 188.90625 C 193.828125 188.90625 192.890625 188.90625 191.953125 188.90625 C 191.71875 188.90625 191.484375 188.90625 191.015625 188.90625 C 190.546875 188.90625 189.84375 188.90625 189.375 189.140625 C 189.140625 189.140625 188.671875 189.140625 188.4375 189.375 C 187.96875 189.375 187.5 189.609375 187.03125 189.609375 C 186.796875 189.609375 186.328125 189.84375 186.09375 189.84375 C 185.625 189.84375 185.15625 190.078125 184.6875 190.078125 C 184.453125 190.078125 183.984375 190.3125 183.75 190.3125 C 183.28125 190.3125 182.8125 190.546875 182.578125 190.546875 C 182.34375 190.546875 182.109375 190.78125 181.640625 190.78125 C 181.171875 191.015625 180.9375 191.015625 180.46875 191.25 C 180.234375 191.25 180 191.484375 179.765625 191.484375 C 179.53125 191.71875 179.0625 191.71875 178.828125 191.953125 C 178.59375 191.953125 178.359375 192.1875 178.125 192.1875 C 178.125 192.1875 178.125 192.1875 177.890625 192.1875 L 176.484375 188.203125 C 181.40625 185.625 190.3125 181.640625 199.21875 181.640625 C 207.421875 181.640625 219.609375 183.984375 227.34375 190.3125 Z M 223.828125 221.484375 L 186.09375 221.484375 L 183.984375 211.40625 C 185.859375 210.234375 191.71875 207.421875 198.984375 207.421875 C 206.953125 207.421875 220.3125 212.8125 223.59375 213.984375 L 223.59375 221.484375 Z M 223.828125 221.484375 " fill-opacity="1" fill-rule="nonzero"/><path fill="rgb(45.878601%, 45.878601%, 96.078491%)" d="M 165.9375 177.1875 C 166.40625 178.59375 166.875 180 167.8125 181.171875 C 168.28125 181.640625 168.984375 181.875 169.453125 181.40625 C 169.921875 180.9375 170.15625 180.234375 169.6875 179.765625 C 168.984375 178.828125 168.515625 177.65625 168.046875 176.484375 C 167.578125 174.375 167.34375 173.4375 167.34375 173.203125 C 167.578125 171.09375 176.71875 160.3125 191.953125 160.3125 C 203.203125 160.3125 221.953125 160.3125 230.859375 169.453125 C 235.078125 173.671875 235.78125 177.65625 233.203125 181.640625 C 233.203125 181.875 232.96875 181.875 232.96875 182.109375 C 232.5 182.578125 232.734375 183.28125 233.203125 183.75 C 233.4375 183.984375 233.671875 183.984375 233.90625 183.984375 C 234.140625 183.984375 234.609375 183.75 234.84375 183.515625 C 235.078125 183.28125 235.078125 183.28125 235.3125 183.046875 C 237.1875 180.234375 239.296875 174.609375 232.734375 168.046875 C 223.125 158.4375 203.671875 158.4375 191.953125 158.4375 C 175.078125 158.4375 165 170.625 165 173.671875 C 165.234375 174.140625 165.46875 175.546875 165.9375 177.1875 Z M 165.9375 177.1875 " fill-opacity="1" fill-rule="nonzero"/><path fill="rgb(45.878601%, 45.878601%, 96.078491%)" d="M 233.203125 189.84375 C 233.203125 190.546875 233.671875 191.015625 234.375 191.015625 L 243.75 191.015625 C 244.453125 191.015625 244.921875 190.546875 244.921875 189.84375 C 244.921875 189.140625 244.453125 188.671875 243.75 188.671875 L 234.375 188.671875 C 233.671875 188.671875 233.203125 189.140625 233.203125 189.84375 Z M 233.203125 189.84375 " fill-opacity="1" fill-rule="nonzero"/><path fill="rgb(45.878601%, 45.878601%, 96.078491%)" d="M 139.453125 150 L 139.453125 148.828125 C 139.453125 147.421875 140.390625 146.484375 141.796875 146.484375 C 143.203125 146.484375 144.140625 147.421875 144.140625 148.828125 L 144.140625 150 C 144.140625 150.703125 144.609375 151.171875 145.3125 151.171875 C 146.015625 151.171875 146.484375 150.703125 146.484375 150 L 146.484375 147.65625 C 146.484375 144.375 149.0625 141.796875 152.34375 141.796875 C 155.625 141.796875 158.203125 144.375 158.203125 147.65625 L 158.203125 150 C 158.203125 150.703125 158.671875 151.171875 159.375 151.171875 L 166.40625 151.171875 C 167.109375 151.171875 167.578125 150.703125 167.578125 150 C 167.578125 149.296875 167.109375 148.828125 166.40625 148.828125 L 160.546875 148.828125 L 160.546875 147.65625 C 160.546875 143.203125 156.796875 139.453125 152.34375 139.453125 C 148.828125 139.453125 145.546875 141.796875 144.609375 145.078125 C 143.90625 144.609375 142.96875 144.140625 141.796875 144.140625 C 139.21875 144.140625 137.109375 146.25 137.109375 148.828125 L 131.25 148.828125 C 130.546875 148.828125 130.078125 149.296875 130.078125 150 C 130.078125 150.703125 130.546875 151.171875 131.25 151.171875 L 138.28125 151.171875 C 138.984375 151.171875 139.453125 150.703125 139.453125 150 Z M 139.453125 150 " fill-opacity="1" fill-rule="nonzero"/><path fill="rgb(45.878601%, 45.878601%, 96.078491%)" d="M 229.6875 141.796875 L 239.0625 141.796875 C 239.765625 141.796875 240.234375 141.328125 240.234375 140.625 C 240.234375 139.921875 239.765625 139.453125 239.0625 139.453125 L 229.6875 139.453125 C 228.984375 139.453125 228.515625 139.921875 228.515625 140.625 C 228.515625 141.328125 228.984375 141.796875 229.6875 141.796875 Z M 229.6875 141.796875 " fill-opacity="1" fill-rule="nonzero"/><path fill="rgb(45.878601%, 45.878601%, 96.078491%)" d="M 145.3125 181.640625 L 138.28125 181.640625 C 137.578125 181.640625 137.109375 182.109375 137.109375 182.8125 C 137.109375 183.515625 137.578125 183.984375 138.28125 183.984375 L 145.3125 183.984375 C 146.015625 183.984375 146.484375 183.515625 146.484375 182.8125 C 146.484375 182.109375 146.015625 181.640625 145.3125 181.640625 Z M 145.3125 181.640625 " fill-opacity="1" fill-rule="nonzero"/></svg>