<?xml version="1.0" encoding="UTF-8"?><svg xmlns="http://www.w3.org/2000/svg" xmlns:xlink="http://www.w3.org/1999/xlink" width="375" zoomAndPan="magnify" viewBox="0 0 375 374.999991" height="374.999991" preserveAspectRatio="xMidYMid meet" version="1.0"><path fill="rgb(45.878601%, 45.878601%, 96.078491%)" d="M 153.515625 172.265625 C 153.515625 171.5625 153.046875 171.09375 152.34375 171.09375 L 140.625 171.09375 C 139.921875 171.09375 139.453125 171.5625 139.453125 172.265625 C 139.453125 172.96875 139.921875 173.4375 140.625 173.4375 L 152.34375 173.4375 C 153.046875 173.4375 153.515625 172.96875 153.515625 172.265625 Z M 153.515625 172.265625 " fill-opacity="1" fill-rule="nonzero"/><path fill="rgb(45.878601%, 45.878601%, 96.078491%)" d="M 178.125 142.734375 C 178.59375 142.96875 179.296875 142.96875 179.765625 142.265625 C 180.46875 141.328125 181.640625 140.625 182.8125 140.625 C 184.453125 140.625 185.625 141.5625 186.09375 142.96875 L 185.15625 142.96875 C 184.453125 142.96875 183.984375 143.4375 183.984375 144.140625 C 183.984375 144.84375 184.453125 145.3125 185.15625 145.3125 L 189.84375 145.3125 C 190.546875 145.3125 191.015625 144.84375 191.015625 144.140625 C 191.015625 143.4375 190.546875 142.96875 189.84375 142.96875 L 188.90625 142.96875 C 189.375 141.5625 190.78125 140.625 192.1875 140.625 C 193.359375 140.625 194.53125 141.328125 195.234375 142.5 C 195.46875 142.96875 196.171875 143.203125 196.875 142.96875 C 197.34375 142.734375 197.578125 142.03125 197.34375 141.328125 C 196.171875 139.453125 194.296875 138.28125 192.1875 138.28125 C 190.3125 138.28125 188.671875 139.21875 187.5 140.625 C 186.328125 139.21875 184.6875 138.28125 182.8125 138.28125 C 180.703125 138.28125 178.828125 139.453125 177.65625 141.09375 C 177.421875 141.796875 177.65625 142.5 178.125 142.734375 Z M 178.125 142.734375 " fill-opacity="1" fill-rule="nonzero"/><path fill="rgb(45.878601%, 45.878601%, 96.078491%)" d="M 226.171875 216.328125 C 225.9375 216.328125 225.9375 216.09375 226.171875 216.328125 C 225.9375 216.09375 225.9375 216.09375 225.9375 215.859375 C 225.9375 215.625 225.9375 215.859375 225.703125 215.859375 C 225.703125 215.859375 225.46875 215.859375 225.46875 215.625 C 225.234375 215.625 225.234375 215.625 225 215.625 L 219.140625 215.625 L 219.140625 198.046875 C 219.140625 197.34375 218.671875 196.875 217.96875 196.875 L 214.453125 196.875 L 214.453125 179.296875 C 214.453125 178.59375 213.984375 178.125 213.28125 178.125 L 207.421875 178.125 L 207.421875 158.203125 C 207.421875 157.5 206.953125 157.03125 206.25 157.03125 L 205.078125 157.03125 L 205.078125 155.859375 C 205.078125 155.15625 204.609375 154.6875 203.90625 154.6875 C 203.203125 154.6875 202.734375 155.15625 202.734375 155.859375 L 202.734375 157.03125 L 189.84375 157.03125 C 189.140625 157.03125 188.671875 157.5 188.671875 158.203125 C 188.671875 158.90625 189.140625 159.375 189.84375 159.375 L 205.078125 159.375 L 205.078125 161.71875 L 169.921875 161.71875 L 169.921875 159.375 L 185.15625 159.375 C 185.859375 159.375 186.328125 158.90625 186.328125 158.203125 C 186.328125 157.5 185.859375 157.03125 185.15625 157.03125 L 172.265625 157.03125 L 172.265625 155.859375 C 172.265625 155.15625 171.796875 154.6875 171.09375 154.6875 C 170.390625 154.6875 169.921875 155.15625 169.921875 155.859375 L 169.921875 157.03125 L 168.75 157.03125 C 168.046875 157.03125 167.578125 157.5 167.578125 158.203125 L 167.578125 178.125 L 161.71875 178.125 C 161.015625 178.125 160.546875 178.59375 160.546875 179.296875 L 160.546875 196.875 L 157.03125 196.875 C 156.328125 196.875 155.859375 197.34375 155.859375 198.046875 L 155.859375 215.625 L 150 215.625 C 150 215.625 149.765625 215.625 149.765625 215.625 C 149.765625 215.625 149.53125 215.625 149.53125 215.625 C 149.296875 215.625 149.296875 215.859375 149.0625 215.859375 C 149.0625 215.859375 148.828125 216.09375 148.828125 216.09375 C 148.828125 216.328125 148.828125 216.328125 148.828125 216.5625 L 148.828125 235.3125 C 148.828125 236.015625 149.296875 236.484375 150 236.484375 C 150.703125 236.484375 151.171875 236.015625 151.171875 235.3125 L 151.171875 219.375 L 153.75 221.953125 C 153.984375 222.1875 154.21875 222.1875 154.6875 222.1875 L 161.25 222.1875 L 162.890625 223.828125 L 162.890625 227.34375 L 157.03125 227.34375 C 156.328125 227.34375 155.859375 227.8125 155.859375 228.515625 L 155.859375 235.546875 C 155.859375 236.25 156.328125 236.71875 157.03125 236.71875 C 157.734375 236.71875 158.203125 236.25 158.203125 235.546875 L 158.203125 229.6875 L 164.0625 229.6875 C 164.765625 229.6875 165.234375 229.21875 165.234375 228.515625 L 165.234375 225 L 171.09375 225 L 169.921875 235.3125 C 169.921875 236.015625 170.390625 236.484375 170.859375 236.71875 C 171.5625 236.71875 172.03125 236.25 172.265625 235.78125 L 179.0625 175.78125 L 181.40625 175.78125 L 174.609375 235.3125 C 174.609375 236.015625 175.078125 236.484375 175.546875 236.71875 C 175.546875 236.71875 175.546875 236.71875 175.78125 236.71875 C 175.78125 236.71875 175.78125 236.71875 176.015625 236.71875 C 176.015625 236.71875 176.25 236.71875 176.25 236.71875 C 176.25 236.71875 176.484375 236.71875 176.484375 236.484375 C 176.484375 236.484375 176.71875 236.25 176.71875 236.25 C 176.71875 236.015625 176.71875 236.015625 176.953125 235.78125 L 178.359375 222.65625 L 196.40625 222.65625 L 197.109375 229.6875 L 197.8125 235.78125 C 197.8125 236.015625 197.8125 236.015625 198.046875 236.25 C 198.046875 236.25 198.046875 236.25 198.046875 236.484375 C 198.046875 236.484375 198.046875 236.71875 198.28125 236.71875 C 198.28125 236.71875 198.515625 236.71875 198.515625 236.71875 C 198.515625 236.71875 198.515625 236.71875 198.75 236.71875 C 198.75 236.71875 198.984375 236.71875 198.984375 236.71875 C 198.984375 236.71875 198.984375 236.71875 199.21875 236.71875 C 199.21875 236.71875 199.21875 236.71875 199.453125 236.71875 C 200.15625 236.71875 200.625 236.015625 200.390625 235.3125 L 193.59375 175.78125 L 195.9375 175.78125 L 202.96875 235.78125 C 202.96875 236.484375 203.4375 236.71875 204.140625 236.71875 C 204.140625 236.71875 204.140625 236.71875 204.375 236.71875 C 205.078125 236.71875 205.546875 236.015625 205.3125 235.3125 L 203.90625 225 L 209.765625 225 L 209.765625 228.515625 C 209.765625 229.21875 210.234375 229.6875 210.9375 229.6875 L 216.796875 229.6875 L 216.796875 235.546875 C 216.796875 236.25 217.265625 236.71875 217.96875 236.71875 C 218.671875 236.71875 219.140625 236.25 219.140625 235.546875 L 219.140625 228.515625 C 219.140625 227.8125 218.671875 227.34375 217.96875 227.34375 L 212.109375 227.34375 L 212.109375 224.296875 L 213.75 222.65625 L 220.3125 222.65625 C 220.546875 222.65625 221.015625 222.421875 221.25 222.421875 L 223.828125 219.84375 L 223.828125 235.78125 C 223.828125 236.484375 224.296875 236.953125 225 236.953125 C 225.703125 236.953125 226.171875 236.484375 226.171875 235.78125 L 226.171875 217.03125 C 226.171875 216.5625 226.171875 216.5625 226.171875 216.328125 Z M 216.796875 210.9375 L 214.453125 210.9375 L 214.453125 205.078125 C 214.453125 204.375 213.984375 203.90625 213.28125 203.90625 L 209.765625 203.90625 L 209.765625 199.21875 L 216.796875 199.21875 Z M 203.90625 196.875 C 203.203125 196.875 202.734375 197.34375 202.734375 198.046875 C 202.734375 198.75 203.203125 199.21875 203.90625 199.21875 L 207.421875 199.21875 L 207.421875 201.5625 L 203.90625 201.5625 C 203.203125 201.5625 202.734375 202.03125 202.734375 202.734375 C 202.734375 203.4375 203.203125 203.90625 203.90625 203.90625 L 207.421875 203.90625 L 207.421875 209.296875 L 202.5 214.21875 L 200.15625 194.765625 L 203.90625 194.765625 C 204.609375 194.765625 205.078125 194.296875 205.078125 193.59375 L 205.078125 189.84375 L 212.109375 189.84375 L 212.109375 196.875 Z M 201.5625 180.46875 L 202.734375 180.46875 L 202.734375 183.984375 C 202.734375 184.6875 203.203125 185.15625 203.90625 185.15625 L 207.421875 185.15625 L 207.421875 187.5 L 203.90625 187.5 C 203.203125 187.5 202.734375 187.96875 202.734375 188.671875 L 202.734375 192.1875 L 200.15625 192.1875 L 198.75 180.46875 Z M 212.109375 187.5 L 209.765625 187.5 L 209.765625 183.984375 C 209.765625 183.28125 209.296875 182.8125 208.59375 182.8125 L 205.078125 182.8125 L 205.078125 180.46875 L 212.109375 180.46875 Z M 205.078125 178.125 L 202.734375 178.125 L 202.734375 164.0625 L 205.078125 164.0625 Z M 174.84375 192.1875 L 172.265625 192.1875 L 172.265625 188.671875 C 172.265625 187.96875 171.796875 187.5 171.09375 187.5 L 167.578125 187.5 L 167.578125 185.15625 L 171.09375 185.15625 C 171.796875 185.15625 172.265625 184.6875 172.265625 183.984375 L 172.265625 180.46875 L 176.25 180.46875 Z M 169.921875 164.0625 L 172.265625 164.0625 L 172.265625 178.125 L 169.921875 178.125 Z M 168.75 180.46875 L 169.921875 180.46875 L 169.921875 182.8125 L 166.40625 182.8125 C 165.703125 182.8125 165.234375 183.28125 165.234375 183.984375 L 165.234375 187.5 L 162.890625 187.5 L 162.890625 180.46875 Z M 162.890625 189.84375 L 169.921875 189.84375 L 169.921875 193.359375 C 169.921875 194.0625 170.390625 194.53125 171.09375 194.53125 L 174.609375 194.53125 L 172.265625 213.984375 L 167.34375 209.0625 L 167.34375 203.90625 L 171.09375 203.90625 C 171.796875 203.90625 172.265625 203.4375 172.265625 202.734375 C 172.265625 202.03125 171.796875 201.5625 171.09375 201.5625 L 167.578125 201.5625 L 167.578125 199.21875 L 171.09375 199.21875 C 171.796875 199.21875 172.265625 198.75 172.265625 198.046875 C 172.265625 197.34375 171.796875 196.875 171.09375 196.875 L 162.890625 196.875 Z M 165.234375 199.21875 L 165.234375 203.90625 L 161.71875 203.90625 C 161.015625 203.90625 160.546875 204.375 160.546875 205.078125 L 160.546875 210.9375 L 158.203125 210.9375 L 158.203125 199.21875 Z M 164.53125 222.65625 L 162.421875 220.546875 C 162.421875 220.546875 161.953125 220.3125 161.71875 220.3125 L 155.15625 220.3125 L 152.8125 217.96875 L 166.40625 217.96875 C 167.109375 217.96875 167.578125 217.5 167.578125 216.796875 C 167.578125 216.09375 167.109375 215.625 166.40625 215.625 L 158.203125 215.625 L 158.203125 213.28125 L 161.71875 213.28125 C 162.421875 213.28125 162.890625 212.8125 162.890625 212.109375 L 162.890625 206.25 L 165.234375 206.25 L 165.234375 209.765625 C 165.234375 210 165.46875 210.46875 165.46875 210.703125 L 172.03125 217.265625 L 171.328125 222.65625 Z M 176.484375 178.125 L 174.609375 178.125 L 174.609375 175.78125 L 176.71875 175.78125 Z M 186.328125 168.75 L 188.671875 168.75 L 188.671875 173.4375 L 186.328125 173.4375 Z M 185.15625 175.78125 L 191.25 175.78125 L 191.953125 182.8125 L 183.046875 182.8125 L 183.75 175.78125 Z M 181.640625 194.53125 L 193.359375 194.53125 L 194.0625 201.5625 L 180.9375 201.5625 Z M 193.125 192.1875 L 182.109375 192.1875 L 182.8125 185.15625 L 192.1875 185.15625 Z M 180.703125 203.90625 L 194.53125 203.90625 L 195.234375 210.9375 L 179.765625 210.9375 Z M 178.828125 220.3125 L 179.53125 213.28125 L 195.46875 213.28125 L 196.171875 220.3125 Z M 195.703125 173.4375 L 195.703125 172.265625 C 195.703125 171.5625 195.234375 171.09375 194.53125 171.09375 C 193.828125 171.09375 193.359375 171.5625 193.359375 172.265625 L 193.359375 173.4375 L 191.015625 173.4375 L 191.015625 168.75 L 194.53125 168.75 C 195.234375 168.75 195.703125 168.28125 195.703125 167.578125 C 195.703125 166.875 195.234375 166.40625 194.53125 166.40625 L 180.46875 166.40625 C 179.765625 166.40625 179.296875 166.875 179.296875 167.578125 C 179.296875 168.28125 179.765625 168.75 180.46875 168.75 L 183.984375 168.75 L 183.984375 173.4375 L 181.640625 173.4375 L 181.640625 172.265625 C 181.640625 171.5625 181.171875 171.09375 180.46875 171.09375 C 179.765625 171.09375 179.296875 171.5625 179.296875 172.265625 L 179.296875 173.4375 L 174.609375 173.4375 L 174.609375 164.0625 L 200.390625 164.0625 L 200.390625 173.4375 Z M 200.390625 175.78125 L 200.390625 178.125 L 198.515625 178.125 L 198.28125 175.78125 Z M 219.84375 220.3125 L 213.28125 220.3125 C 213.046875 220.3125 212.578125 220.546875 212.34375 220.546875 L 210.46875 222.65625 L 203.671875 222.65625 L 202.96875 217.03125 L 209.53125 210.46875 C 209.765625 210.234375 209.765625 210 209.765625 209.53125 L 209.765625 206.25 L 212.109375 206.25 L 212.109375 212.109375 C 212.109375 212.8125 212.578125 213.28125 213.28125 213.28125 L 216.796875 213.28125 L 216.796875 215.625 L 208.59375 215.625 C 207.890625 215.625 207.421875 216.09375 207.421875 216.796875 C 207.421875 217.5 207.890625 217.96875 208.59375 217.96875 L 222.1875 217.96875 Z M 219.84375 220.3125 " fill-opacity="1" fill-rule="nonzero"/><path fill="rgb(45.878601%, 45.878601%, 96.078491%)" d="M 236.71875 194.53125 L 227.34375 194.53125 C 226.640625 194.53125 226.171875 195 226.171875 195.703125 C 226.171875 196.40625 226.640625 196.875 227.34375 196.875 L 236.71875 196.875 C 237.421875 196.875 237.890625 196.40625 237.890625 195.703125 C 237.890625 195 237.421875 194.53125 236.71875 194.53125 Z M 236.71875 194.53125 " fill-opacity="1" fill-rule="nonzero"/></svg>